<svg width="340" height="340" viewBox="0 0 340 340" fill="none" xmlns="http://www.w3.org/2000/svg">
<circle cx="170" cy="170" r="169" stroke="white" stroke-width="2"/>
<path d="M90.65 82.65H112.95V89.5H90.65V82.65ZM110.35 82.65H117.8C117.8 82.65 117.8 85.3 117.75 86.25C117.3 111.15 116.85 120.1 114.95 122.9C113.5 125.2 112.1 125.95 110.1 126.4C108.2 126.85 105.45 126.8 102.75 126.75C102.65 124.7 101.7 121.4 100.45 119.25C102.9 119.45 105.05 119.45 106.25 119.45C107.1 119.45 107.6 119.2 108.15 118.4C109.6 116.65 110 107.45 110.35 84.4V82.65ZM97.25 85.9H104.7C104.35 101.8 103.7 117.4 91.7 126.8C90.5 124.85 88.3 122.4 86.35 121C97.25 113.1 97 99.8 97.25 85.9ZM78.05 106L85.2 97.45V126.75H78.05V106ZM72 87.95H86.65V94.45H72V87.95ZM78.05 79.3H85.2V91.45H78.05V79.3ZM84.35 101.55C86.1 102.8 91.65 107.85 92.95 109.1L88.7 114.65C86.75 111.8 82.85 107.2 80.6 104.85L84.35 101.55ZM84.7 87.95H86.1L87.3 87.65L91.35 90.35C87.75 100.2 80.9 109.9 74.3 115.15C73.65 113.3 71.75 109.7 70.6 108.4C76.55 104.3 82.3 96.35 84.7 89.3V87.95ZM90 97.55L94.6 101.4C92.25 103.45 90.4 105.8 88.8 107.25L85.6 104.3C87 102.6 88.95 99.6 90 97.55ZM150.85 81.35H163.25V87.9H150.85V81.35ZM150.85 92.55H163.25V98.9H150.85V92.55ZM150.85 103.85H163.25V110.3H150.85V103.85ZM160.15 81.35H167.15V119.1C167.15 122.45 166.55 124.35 164.6 125.45C162.65 126.6 160 126.8 156.2 126.75C156 124.85 155.1 121.7 154.2 119.9C156.05 120.05 158.45 120 159.15 120C159.9 120 160.15 119.75 160.15 119V81.35ZM147.85 81.35H154.65V99.85C154.65 107.85 153.95 119.7 149.85 126.8C148.65 125.55 145.65 123.4 144.1 122.7C147.6 116.4 147.85 106.95 147.85 99.85V81.35ZM121.8 84.7H146.6V91H121.8V84.7ZM128.7 93.1H140.2V98.55H128.7V93.1ZM128.7 100.8H140.2V106.25H128.7V100.8ZM121.25 108.65H146.05V114.95H121.25V108.65ZM125.55 79.8H132.05V110.85H125.55V79.8ZM136.7 79.8H143.35V110.85H136.7V79.8ZM127.05 114.9L133.9 116.9C132.05 120.55 129.05 124.5 126.4 126.9C125.05 125.65 122.25 123.6 120.6 122.65C123.2 120.75 125.7 117.75 127.05 114.9ZM134.6 117.55L140.1 114.5C142.1 116.65 144.75 119.7 146 121.75L140.15 125.15C139.1 123.15 136.6 119.9 134.6 117.55ZM178.9 86.75H207.75V85.25H175.2V81.15H214.3V90.85H178.9V86.75ZM176.85 86.75H183.6C182.5 90.2 181.15 94.15 180.1 96.8L173.55 96.4C174.7 93.75 175.95 89.95 176.85 86.75ZM177.8 92.35H213.15V96.45H176.55L177.8 92.35ZM210.75 92.35H217.55C217.55 92.35 217.5 93.45 217.5 94.1C217.3 97.5 217 99.4 216.1 100.45C215.3 101.35 214.05 101.75 212.95 101.85C211.9 101.95 210.05 101.95 208 101.85C207.95 100.65 207.4 98.8 206.8 97.65C207.85 97.8 208.65 97.85 209.2 97.8C209.6 97.8 209.9 97.8 210.2 97.45C210.5 97 210.65 95.8 210.75 93.05V92.35ZM186.15 79.25H192.7V90.35C192.7 97.75 190.1 103.2 175.05 105.1C174.45 103.55 172.75 100.8 171.6 99.5C184.25 98.25 186.15 95 186.15 90.2V79.25ZM197.1 79.25H203.95V99.75H197.1V79.25ZM185.4 108.5V109.9H205V108.5H185.4ZM185.4 113.6V115.05H205V113.6H185.4ZM185.4 103.4V104.8H205V103.4H185.4ZM178.35 99.45H212.4V119H178.35V99.45ZM197.05 121.3L202.95 117.75C208.15 119.5 214.5 121.85 218.1 123.45L209.9 126.85C207.15 125.3 202.05 123.05 197.05 121.3ZM186.35 117.8L192.85 120.75C188.7 123.3 182.2 125.65 177.05 126.95C175.85 125.5 173.35 122.95 171.8 121.75C177.15 120.95 183.05 119.5 186.35 117.8ZM230.95 82.5H260.7V89.4H230.95V82.5ZM230.95 93.95H260.9V100.7H230.95V93.95ZM230.95 105.65H261.15V112.5H230.95V105.65ZM226.75 82.5H233.95V100.4C233.95 108.6 232.9 120.35 226.65 127.05C225.5 125.7 222.5 123.25 220.9 122.35C226.35 116.4 226.75 107.4 226.75 100.35V82.5ZM258.25 82.5H265.5V118.6C265.5 122.2 264.75 124.1 262.55 125.2C260.25 126.35 257.15 126.5 252.7 126.45C252.45 124.5 251.35 121.35 250.4 119.5C252.85 119.7 256.1 119.65 257 119.65C257.9 119.65 258.25 119.35 258.25 118.5V82.5ZM242 85.3H249.35V126.05H242V85.3Z" fill="white"/>
<path d="M169.85 286.38C143.16 286.38 124.97 263.6 124.97 220.08C124.97 176.56 143.16 155.14 169.85 155.14C196.54 155.14 214.56 176.73 214.56 220.08C214.56 263.6 196.54 286.38 169.85 286.38ZM169.85 262.92C178.86 262.92 186 254.76 186 220.08C186 185.57 178.86 178.26 169.85 178.26C160.84 178.26 153.53 185.57 153.53 220.08C153.53 254.76 160.84 262.92 169.85 262.92Z" fill="white"/>
</svg>
