<svg width="340" height="340" viewBox="0 0 340 340" fill="none" xmlns="http://www.w3.org/2000/svg">
<circle cx="170" cy="170" r="169" stroke="white" stroke-width="2"/>
<path d="M72.9 81.3H117.25V87.75H72.9V81.3ZM91.65 84.05H99.3V104.7C99.3 115.05 94.35 123.35 76.15 126.8C75.35 125.15 73.3 122 71.7 120.35C88.9 118.1 91.65 112.4 91.65 104.6V84.05ZM83.95 103.3V105.55H106.85V103.3H83.95ZM83.95 95.75V97.95H106.85V95.75H83.95ZM77.1 89.95H114.05V111.35H77.1V89.95ZM83.7 110.75C91.1 119.2 102.95 119.3 119.45 118.85C118.15 120.5 116.8 123.6 116.4 126.05C99.2 125.9 85.5 124.65 77.35 113.3L83.7 110.75ZM150 95.6H168.7V102.3H150V95.6ZM122.45 84.05H145.2V89.9H122.45V84.05ZM122 104H145V110.05H122V104ZM121.85 95.05H145.5V100.95H121.85V95.05ZM157.4 98.6H164.45V126.5H157.4V98.6ZM130.3 79.8H137.35V86.55H130.3V79.8ZM130.3 100.8H137.35V126.7H130.3V100.8ZM146.8 83.1L155.15 85.4C155.1 85.95 154.7 86.2 153.7 86.4V100.65C153.7 108.1 152.75 119.65 146.05 126.8C145.15 125.2 142.5 122.7 140.85 121.85C146.3 115.8 146.8 107.3 146.8 100.55V83.1ZM162.9 79.75L168.7 85C163.4 87.4 156.7 89.1 150.95 90.2C150.6 88.65 149.55 86.1 148.7 84.7C153.9 83.5 159.45 81.65 162.9 79.75ZM136.9 109.85C138.4 110.7 142.85 114.05 144 114.95L139.85 120.1C138.2 118.05 134.9 114.65 133 112.95L136.9 109.85ZM124.65 90.55L130.2 89.2C131 90.8 131.65 93 131.85 94.45L126 96.05C125.95 94.55 125.35 92.25 124.65 90.55ZM136.9 89.1L143.3 90.3C142.35 92.45 141.6 94.25 140.95 95.6L135.2 94.45C135.8 92.9 136.55 90.7 136.9 89.1ZM130.35 107.65L135.45 109.5C133.1 114.95 129.15 120.65 125.15 123.95C124.05 122.4 121.95 120 120.45 118.8C124.3 116.3 128.25 111.8 130.35 107.65ZM178.9 86.75H207.75V85.25H175.2V81.15H214.3V90.85H178.9V86.75ZM176.85 86.75H183.6C182.5 90.2 181.15 94.15 180.1 96.8L173.55 96.4C174.7 93.75 175.95 89.95 176.85 86.75ZM177.8 92.35H213.15V96.45H176.55L177.8 92.35ZM210.75 92.35H217.55C217.55 92.35 217.5 93.45 217.5 94.1C217.3 97.5 217 99.4 216.1 100.45C215.3 101.35 214.05 101.75 212.95 101.85C211.9 101.95 210.05 101.95 208 101.85C207.95 100.65 207.4 98.8 206.8 97.65C207.85 97.8 208.65 97.85 209.2 97.8C209.6 97.8 209.9 97.8 210.2 97.45C210.5 97 210.65 95.8 210.75 93.05V92.35ZM186.15 79.25H192.7V90.35C192.7 97.75 190.1 103.2 175.05 105.1C174.45 103.55 172.75 100.8 171.6 99.5C184.25 98.25 186.15 95 186.15 90.2V79.25ZM197.1 79.25H203.95V99.75H197.1V79.25ZM185.4 108.5V109.9H205V108.5H185.4ZM185.4 113.6V115.05H205V113.6H185.4ZM185.4 103.4V104.8H205V103.4H185.4ZM178.35 99.45H212.4V119H178.35V99.45ZM197.05 121.3L202.95 117.75C208.15 119.5 214.5 121.85 218.1 123.45L209.9 126.85C207.15 125.3 202.05 123.05 197.05 121.3ZM186.35 117.8L192.85 120.75C188.7 123.3 182.2 125.65 177.05 126.95C175.85 125.5 173.35 122.95 171.8 121.75C177.15 120.95 183.05 119.5 186.35 117.8ZM230.95 82.5H260.7V89.4H230.95V82.5ZM230.95 93.95H260.9V100.7H230.95V93.95ZM230.95 105.65H261.15V112.5H230.95V105.65ZM226.75 82.5H233.95V100.4C233.95 108.6 232.9 120.35 226.65 127.05C225.5 125.7 222.5 123.25 220.9 122.35C226.35 116.4 226.75 107.4 226.75 100.35V82.5ZM258.25 82.5H265.5V118.6C265.5 122.2 264.75 124.1 262.55 125.2C260.25 126.35 257.15 126.5 252.7 126.45C252.45 124.5 251.35 121.35 250.4 119.5C252.85 119.7 256.1 119.65 257 119.65C257.9 119.65 258.25 119.35 258.25 118.5V82.5ZM242 85.3H249.35V126.05H242V85.3Z" fill="white"/>
<path d="M169.85 286.38C143.16 286.38 124.97 263.6 124.97 220.08C124.97 176.56 143.16 155.14 169.85 155.14C196.54 155.14 214.56 176.73 214.56 220.08C214.56 263.6 196.54 286.38 169.85 286.38ZM169.85 262.92C178.86 262.92 186 254.76 186 220.08C186 185.57 178.86 178.26 169.85 178.26C160.84 178.26 153.53 185.57 153.53 220.08C153.53 254.76 160.84 262.92 169.85 262.92Z" fill="white"/>
</svg>
