<svg width="340" height="340" viewBox="0 0 340 340" fill="none" xmlns="http://www.w3.org/2000/svg">
<circle cx="170" cy="170" r="169" stroke="white" stroke-width="2"/>
<path d="M77.2 92.2H90.75V97.45H77.2V92.2ZM77.2 100.2H90.75V105.25H77.2V100.2ZM77.2 108.4H90.75V113.65H77.2V108.4ZM99.1 103.05H117.8V109.1H99.1V103.05ZM79.6 84H87.3V89.4H79.6V84ZM95 81.8H113.05V87.7H95V81.8ZM95.4 112.75H118.85V118.95H95.4V112.75ZM104 98.9H110.9V126.6H104V98.9ZM82.2 95H86.9V110.3H82.2V95ZM111.2 81.8H117.6C117.6 81.8 117.55 83.25 117.5 84C117.3 91.85 116.9 95.45 115.8 96.85C114.9 98 113.85 98.45 112.55 98.7C111.4 98.9 109.55 98.95 107.55 98.9C107.45 97.1 106.85 94.65 105.95 93.1C107.3 93.25 108.35 93.3 109 93.3C109.55 93.3 109.95 93.2 110.3 92.75C110.8 92.1 111.05 89.55 111.2 82.65V81.8ZM97.4 99.2L103.2 100.35C102.4 104.9 100.8 109.55 98.95 112.45C97.75 111.6 95.15 110.3 93.75 109.7C95.55 107.1 96.8 103.05 97.4 99.2ZM77.8 79.2L84.2 80.6C82.4 87.55 79.3 94.45 75.7 98.7C74.6 97.6 72.05 95.4 70.6 94.45C73.95 90.85 76.5 85.05 77.8 79.2ZM74.6 92.2H80.35V105.45C80.35 112 79.7 121.15 75.95 126.85C74.9 125.9 72.3 124.25 70.95 123.65C74.35 118.5 74.6 111.05 74.6 105.4V92.2ZM88.8 92.2H94.7V120.05C94.7 122.7 94.25 124.5 92.6 125.55C90.9 126.55 88.85 126.7 86 126.7C85.8 125 84.85 122.2 84 120.6C85.65 120.7 87.45 120.7 88.05 120.7C88.6 120.7 88.8 120.5 88.8 119.9V92.2ZM100.4 83.8H106.85C106.35 91.3 104.9 96.9 97.25 100.3C96.55 98.75 94.9 96.4 93.5 95.3C99.4 92.9 100.05 89.05 100.4 83.8ZM85.6 84H86.95L87.85 83.75L91.95 86.25C90.8 89.45 88.85 93.55 87.25 96.15C86.1 95.3 84.15 94.1 82.9 93.45C83.95 91.1 85.1 87.35 85.6 85.1V84ZM144.15 102.55L149.95 99.65C152.45 103.05 155.2 107.6 156.2 110.8L149.9 114.05C149.05 110.95 146.55 106.15 144.15 102.55ZM146.6 87.45H163.95V94.3H146.6V87.45ZM160.8 87.45H167.8C167.8 87.45 167.8 89.8 167.75 90.7C167.1 112.4 166.5 120.45 164.4 123.2C162.85 125.35 161.35 126 159.1 126.4C157.2 126.75 154.15 126.75 151.2 126.65C151.1 124.6 150.1 121.4 148.75 119.35C151.8 119.6 154.6 119.6 155.95 119.6C156.95 119.6 157.5 119.4 158.1 118.7C159.7 117.05 160.3 108.5 160.8 88.85V87.45ZM146 79.2L153.55 80.85C151.5 88.4 148 95.9 144.2 100.5C142.8 99.25 139.55 97.05 137.75 96.05C141.5 92.2 144.5 85.7 146 79.2ZM128.6 79.3L135 81.5C132.85 85.5 130.55 89.95 128.6 92.75L123.75 90.8C125.5 87.7 127.55 82.9 128.6 79.3ZM134.55 85.35L140.65 87.85C136.85 93.65 131.95 100.5 128.05 104.7L123.7 102.5C127.55 97.95 132 90.75 134.55 85.35ZM121 91.9L124.35 86.85C126.95 89.1 130.05 92.25 131.3 94.5L127.65 100.2C126.5 97.8 123.5 94.35 121 91.9ZM133.55 97.65L138.6 95.45C140.55 98.85 142.45 103.25 143.05 106.2L137.6 108.7C137.1 105.8 135.35 101.15 133.55 97.65ZM121 101.1C125.75 100.95 132.75 100.65 139.55 100.3L139.5 106C133.25 106.55 126.65 107 121.6 107.35L121 101.1ZM134.2 110.5L139.5 108.75C140.75 111.75 142.05 115.6 142.65 118.15L137.05 120.2C136.6 117.6 135.3 113.55 134.2 110.5ZM122.8 109.1L128.75 110.15C128.35 114.95 127.3 120.05 125.95 123.25C124.7 122.45 122 121.2 120.5 120.65C121.8 117.75 122.5 113.25 122.8 109.1ZM128.65 104.45H135.05V126.75H128.65V104.45ZM178.9 86.75H207.75V85.25H175.2V81.15H214.3V90.85H178.9V86.75ZM176.85 86.75H183.6C182.5 90.2 181.15 94.15 180.1 96.8L173.55 96.4C174.7 93.75 175.95 89.95 176.85 86.75ZM177.8 92.35H213.15V96.45H176.55L177.8 92.35ZM210.75 92.35H217.55C217.55 92.35 217.5 93.45 217.5 94.1C217.3 97.5 217 99.4 216.1 100.45C215.3 101.35 214.05 101.75 212.95 101.85C211.9 101.95 210.05 101.95 208 101.85C207.95 100.65 207.4 98.8 206.8 97.65C207.85 97.8 208.65 97.85 209.2 97.8C209.6 97.8 209.9 97.8 210.2 97.45C210.5 97 210.65 95.8 210.75 93.05V92.35ZM186.15 79.25H192.7V90.35C192.7 97.75 190.1 103.2 175.05 105.1C174.45 103.55 172.75 100.8 171.6 99.5C184.25 98.25 186.15 95 186.15 90.2V79.25ZM197.1 79.25H203.95V99.75H197.1V79.25ZM185.4 108.5V109.9H205V108.5H185.4ZM185.4 113.6V115.05H205V113.6H185.4ZM185.4 103.4V104.8H205V103.4H185.4ZM178.35 99.45H212.4V119H178.35V99.45ZM197.05 121.3L202.95 117.75C208.15 119.5 214.5 121.85 218.1 123.45L209.9 126.85C207.15 125.3 202.05 123.05 197.05 121.3ZM186.35 117.8L192.85 120.75C188.7 123.3 182.2 125.65 177.05 126.95C175.85 125.5 173.35 122.95 171.8 121.75C177.15 120.95 183.05 119.5 186.35 117.8ZM230.95 82.5H260.7V89.4H230.95V82.5ZM230.95 93.95H260.9V100.7H230.95V93.95ZM230.95 105.65H261.15V112.5H230.95V105.65ZM226.75 82.5H233.95V100.4C233.95 108.6 232.9 120.35 226.65 127.05C225.5 125.7 222.5 123.25 220.9 122.35C226.35 116.4 226.75 107.4 226.75 100.35V82.5ZM258.25 82.5H265.5V118.6C265.5 122.2 264.75 124.1 262.55 125.2C260.25 126.35 257.15 126.5 252.7 126.45C252.45 124.5 251.35 121.35 250.4 119.5C252.85 119.7 256.1 119.65 257 119.65C257.9 119.65 258.25 119.35 258.25 118.5V82.5ZM242 85.3H249.35V126.05H242V85.3Z" fill="white"/>
<path d="M169.85 286.38C143.16 286.38 124.97 263.6 124.97 220.08C124.97 176.56 143.16 155.14 169.85 155.14C196.54 155.14 214.56 176.73 214.56 220.08C214.56 263.6 196.54 286.38 169.85 286.38ZM169.85 262.92C178.86 262.92 186 254.76 186 220.08C186 185.57 178.86 178.26 169.85 178.26C160.84 178.26 153.53 185.57 153.53 220.08C153.53 254.76 160.84 262.92 169.85 262.92Z" fill="white"/>
</svg>
