<?xml version="1.0" encoding="UTF-8"?><svg id="_レイヤー_1" xmlns="http://www.w3.org/2000/svg" xmlns:xlink="http://www.w3.org/1999/xlink" viewBox="0 0 451.34 298.15"><defs><clipPath id="clippath"><rect x="154.44" y="95.18" width="146.67" height="74.45" style="fill:none;"/></clipPath><clipPath id="clippath-1"><rect x="194.44" y="27.18" width="205.73" height="66.67" style="fill:none;"/></clipPath><clipPath id="clippath-2"><rect x="51.18" y="27.18" width="221.93" height="90.67" style="fill:none;"/></clipPath></defs><path d="M162.61,44.45v-15.21c5.14-2.19,10.38-4.11,15.71-5.78,5.33-1.66,10.73-3.05,16.2-4.17,5.47-1.11,10.98-1.95,16.54-2.52s11.13-.84,16.71-.84,11.16.28,16.71.84c5.55.56,11.07,1.4,16.54,2.52,5.47,1.12,10.87,2.51,16.2,4.17s10.57,3.59,15.71,5.78v13.19l44.24-8.13-28.32.14v-15.53l-6.24-2.82c-5.87-2.65-11.86-4.97-17.97-6.98s-12.32-3.69-18.61-5.04-12.64-2.37-19.04-3.05c-6.4-.68-12.82-1.02-19.26-1.02s-12.85.34-19.26,1.02c-6.4.68-12.74,1.69-19.04,3.05-6.29,1.35-12.49,3.03-18.61,5.04s-12.1,4.34-17.97,6.98l-6.26,2.82v15.54l-32.48-.15,48.48,10.15Z" style="fill:#7ed957;"/><g style="clip-path:url(#clippath);"><path d="M282.8,95.5c-1.48,3.22-3.11,6.39-4.89,9.48-4.92,8.52-10.85,16.26-17.8,23.21-6.95,6.96-14.69,12.9-23.2,17.82l-9.15,5.27-9.15-5.27c-8.52-4.92-16.26-10.86-23.22-17.82s-12.9-14.69-17.82-23.21l-.81-1.43c-2.59-2.48-4.97-5.15-7.15-8.01h-14.21c2.63,6.72,5.79,13.17,9.51,19.35,3.71,6.18,7.92,12.01,12.62,17.48,4.7,5.47,9.83,10.51,15.38,15.11s11.45,8.71,17.69,12.32l17.15,9.87,17.15-9.87c6.26-3.61,12.16-7.71,17.71-12.32s10.69-9.65,15.39-15.13c4.71-5.47,8.92-11.3,12.64-17.49s6.89-12.65,9.52-19.37h-17.38Z" style="fill:#7ed957;"/></g><g style="clip-path:url(#clippath-1);"><path d="M375.57,55.1c9.95-.59,24.3-27.02,24.3-27.02l-124.61,22.86c-4.63.85-9.13.43-13.52-1.26l-26.6-10.24c-1.2-.46-2.43-.77-3.71-.91-1.27-.15-2.54-.14-3.81.04s-2.5.51-3.68.99c-1.19.49-2.29,1.12-3.32,1.89l-24.35,18.29c-.46.35-.7.82-.7,1.41s.23,1.05.7,1.4c1.11.83,2.32,1.46,3.63,1.89,1.31.44,2.66.65,4.04.65s2.73-.21,4.04-.65c1.31-.43,2.52-1.06,3.63-1.89l9.96-7.47c.6-.45,1.22-.84,1.89-1.19s1.35-.63,2.06-.86c.7-.23,1.43-.41,2.16-.53.74-.12,1.48-.18,2.22-.18s1.48.06,2.22.18c.74.12,1.46.3,2.17.53s1.39.52,2.05.86,1.29.74,1.89,1.19l35.37,26.63c1.12.81,2.04,1.81,2.77,2.98s1.21,2.44,1.45,3.8v.08c.1.52.36.95.78,1.28.42.33.89.49,1.42.48,0,0,41.57,1.93,55.16,3.43,6.58.73,20.58-12.57,20.58-12.57l-34.89-5.96c13.58,1.02,31.13,2.21,40.29,2.22,7.85,0,22.47-18.23,22.47-18.23l-83.1.55s54.46-3.42,75.06-4.65Z" style="fill:#00bf63;"/></g><g style="clip-path:url(#clippath-2);"><path d="M272.78,89.59c-.1-.76-.35-1.46-.76-2.12-.4-.66-.91-1.21-1.53-1.65l-35.44-26.64c-.76-.57-1.58-1.01-2.48-1.3-.9-.3-1.82-.45-2.77-.45s-1.87.15-2.77.45c-.9.3-1.73.73-2.48,1.3l-9.96,7.46c-.77.57-1.58,1.08-2.43,1.53-.85.45-1.73.82-2.65,1.13-.91.3-1.84.53-2.79.68-.95.15-1.9.23-2.86.23s-1.92-.08-2.86-.23c-.95-.16-1.88-.38-2.79-.68-.92-.31-1.8-.68-2.65-1.13-.85-.44-1.66-.95-2.43-1.53-.9-.67-1.59-1.51-2.07-2.52s-.71-2.08-.67-3.2c.06-1.08.34-2.09.86-3.05.52-.95,1.21-1.74,2.09-2.38l17.15-12.86c.33-.19.55-.47.66-.84.11-.37.08-.72-.09-1.07-.17-.35-.43-.59-.79-.72s-.72-.13-1.07.02l-28.19,9.84c-4.39,1.54-8.85,1.82-13.4.86l-10.53-2.06v-.07c-.43-.06-.78-.11-1.05-.17L51.71,28.08s14.35,26.42,24.3,27.02c20.58,1.23,75.04,4.76,75.04,4.76l-83.11-.55s14.65,18.26,22.49,18.23c9.15,0,26.7-1.15,40.29-2.22l-34.9,5.96s14.03,13.27,20.58,12.57c8.98-1.01,53.63-3.43,53.73-3.43,1.72,0,2.29.26,2.81.96,1.44,1.99,2.98,3.89,4.64,5.69,1.66,1.8,3.42,3.51,5.28,5.1,1.86,1.59,3.81,3.08,5.84,4.44,2.04,1.37,4.15,2.61,6.33,3.73,2.18,1.12,4.42,2.1,6.72,2.95,2.3.85,4.64,1.57,7.02,2.15,2.39.57,4.79,1.01,7.23,1.3,2.43.29,4.88.44,7.33.44h.17c.38.01.76-.05,1.12-.16s.7-.29,1.01-.51c.31-.22.58-.49.8-.8.22-.31.39-.65.5-1.02.26-.73.28-1.46.07-2.21-.21-.74-.61-1.35-1.21-1.84l-5.11-3.85c-.28-.2-.5-.44-.68-.72-.18-.29-.31-.59-.38-.92-.06-.33-.07-.66,0-.99.06-.33.18-.64.35-.93.2-.29.45-.53.74-.72.3-.19.62-.32.96-.38.35-.06.69-.05,1.04.04.34.08.65.23.93.44l5.07,3.81.24.18,8.6,6.48c.45.34.95.6,1.48.78.54.18,1.08.27,1.65.27s1.11-.09,1.65-.27c.54-.18,1.03-.44,1.48-.78,1-.72,1.65-1.68,1.94-2.87.14-.49.2-1.01.18-1.52s-.11-1.02-.28-1.51c-.17-.49-.4-.94-.71-1.36-.3-.42-.66-.78-1.07-1.09l-10.39-7.78c-.24-.18-.45-.39-.62-.64s-.3-.52-.38-.81c-.07-.29-.1-.59-.07-.89.03-.3.1-.59.22-.87.17-.34.4-.64.7-.88.3-.24.64-.41,1.01-.5.38-.09.75-.1,1.13-.02s.72.23,1.03.46l10.41,7.8,5.79,4.36c.44.34.92.61,1.44.81.52.19,1.06.3,1.62.33s1.1-.03,1.65-.17c.54-.15,1.04-.37,1.51-.67.35-.23.66-.5.94-.8.28-.31.53-.64.73-1.01.2-.36.36-.74.47-1.15s.17-.81.19-1.22c.02-.41-.02-.82-.1-1.23s-.22-.8-.4-1.18-.4-.72-.66-1.05-.56-.61-.89-.86l-13.07-9.84c-.24-.18-.45-.39-.63-.64s-.3-.52-.38-.81-.1-.59-.08-.89c.02-.3.1-.59.22-.87.17-.34.4-.64.7-.88.3-.24.64-.41,1.01-.5.37-.09.74-.1,1.13-.02.38.08.71.23,1.02.46l13.11,9.86h.06l1.9,1.43c.55.41,1.16.71,1.83.9.66.18,1.34.24,2.03.17.68-.07,1.33-.26,1.95-.58.61-.31,1.15-.73,1.61-1.24.9-1.08,1.29-2.33,1.18-3.73Z" style="fill:#00bf63;"/></g><path d="M28.1,249.29v-15.29l-14.96-29.67h11.77l8.81,18.56h.46l8.75-18.56h11.5l-14.96,29.67v15.29h-11.38Z"/><path d="M83.9,249.82c-6.32,0-10.82-.66-13.5-1.98-2.67-1.33-4.34-3.46-5.02-6.38-.68-2.92-1.02-7.8-1.02-14.65s.34-11.71,1.02-14.63c.68-2.92,2.35-5.04,5.02-6.38,2.68-1.33,7.18-2,13.5-2s10.82.67,13.5,2c2.68,1.33,4.34,3.46,5,6.38.65,2.92.98,7.79.98,14.63s-.33,11.73-.98,14.65c-.66,2.92-2.32,5.04-5,6.38-2.68,1.32-7.18,1.98-13.5,1.98ZM83.9,240.61c2.83,0,4.73-.23,5.69-.69s1.57-1.51,1.83-3.17c.26-1.65.4-4.96.4-9.94s-.14-8.26-.4-9.92c-.27-1.67-.88-2.72-1.83-3.17-.96-.46-2.85-.69-5.69-.69s-4.75.23-5.75.69c-1,.45-1.64,1.52-1.9,3.23-.27,1.7-.4,4.98-.4,9.85s.13,8.17.4,9.88c.26,1.7.9,2.77,1.9,3.23s2.92.69,5.75.69Z"/><path d="M153.62,204.34v24.65c0,6-.36,10.39-1.08,13.17-.71,2.77-2.31,4.74-4.79,5.92-2.49,1.17-6.54,1.75-12.15,1.75s-9.68-.58-12.17-1.75c-2.47-1.18-4.07-3.15-4.79-5.92-.72-2.78-1.08-7.17-1.08-13.17v-24.65h11.38v27.06c0,3.08.1,5.22.31,6.4.22,1.18.77,1.97,1.65,2.35.88.39,2.44.58,4.71.58s3.82-.19,4.69-.58c.88-.39,1.42-1.17,1.65-2.35.22-1.18.33-3.31.33-6.4v-27.06h11.35Z"/><path d="M194.19,249.29l-5.88-15.75h-7.9v15.75h-11.38v-44.96h21.56c4.14,0,7.26.58,9.38,1.75,2.11,1.16,3.5,2.74,4.17,4.77.68,2.02,1.02,4.72,1.02,8.13,0,3.14-.41,5.86-1.21,8.17-.81,2.31-2.41,3.98-4.79,5.02l6.92,17.13h-11.9ZM186.29,224.52c2.34,0,4.01-.13,4.98-.38.98-.26,1.63-.76,1.94-1.48.3-.72.46-1.93.46-3.63s-.14-2.96-.4-3.69c-.25-.72-.87-1.21-1.85-1.48-.99-.26-2.66-.4-5-.4h-6v11.04h5.88Z"/><path d="M250.97,249.29v-35.27h-12.42v-9.69h36.27v9.69h-12.48v35.27h-11.38Z"/><path d="M286.78,249.29v-44.96h31.88v9.23h-20.5v8.42h17.38v9.21h-17.38v8.9h20.5v9.21h-31.88Z"/><path d="M361.53,249.29l-2.69-8.5h-16l-2.54,8.5h-11.38l14.38-44.96h15.42l14.38,44.96h-11.56ZM350.94,214.4h-.33l-5.17,17.19h10.73l-5.23-17.19Z"/><path d="M422.88,249.29v-28.63h-.46l-9.6,28.63h-7.71l-9.6-28.63h-.46v28.63h-10.58v-44.96h15.6l8.9,25.94h.46l8.81-25.94h15.54v44.96h-10.9Z"/><path d="M5.85,288.65c.19-1.44.27-2.83.27-4.1h11.19v4.1H5.85ZM17.31,278.74v4.06H6.13v-4.06h11.19ZM19.21,276.95H4.29v7.5c0,3.9-.4,8.88-4.29,12.29.38.27,1.1.94,1.35,1.33,2.38-2.08,3.6-4.85,4.21-7.63h11.75v4.9c0,.54-.19.71-.75.73-.56,0-2.52.04-4.58-.04.31.52.67,1.38.79,1.9,2.63,0,4.23-.04,5.17-.35.9-.29,1.27-.92,1.27-2.21v-18.42Z" style="fill:#545454;"/><path d="M53.9,284.57h-5.71v-2.29h5.71v2.29ZM53.9,288.26h-5.71v-2.29h5.71v2.29ZM53.9,291.97h-5.71v-2.31h5.71v2.31ZM46.51,280.82v12.65h9.17v-12.65h-4.44c.21-.73.44-1.6.69-2.44h4.52v-1.56h-10.65v1.56h4.4c-.1.79-.29,1.71-.46,2.44h-3.23ZM36.17,279.51h7.4v2.6h1.46v-4.1h-4.08c-.27-.69-.71-1.63-1.06-2.33l-1.42.52c.25.56.52,1.19.73,1.81h-4.42v4.1h1.4v-2.6ZM36.8,290.49c1.19-.63,2.35-1.46,3.4-2.44,1.4.88,2.71,1.79,3.58,2.44h-6.98ZM37.8,295.7v-3.71h4.4v3.71h-4.4ZM45.07,289.34c-.92-.67-2.31-1.56-3.79-2.46,1.08-1.21,1.98-2.65,2.6-4.25l-.94-.69-.27.06h-3.56c.25-.46.42-.92.58-1.42l-1.44-.27c-.6,1.67-1.79,3.58-3.69,4.92.29.23.77.85.98,1.21,1.17-.88,2.06-1.9,2.79-3h3.48c-.48.96-1.15,1.83-1.88,2.65-.69-.42-1.38-.81-1.96-1.13l-1.04,1.06c.56.35,1.21.71,1.83,1.13-1.42,1.19-3.08,2.08-4.75,2.71.33.31.79,1.08.96,1.5.42-.17.83-.35,1.25-.58v7.17h1.56v-.77h4.4v.71h1.63v-7.35l.17.1,1.08-1.29ZM49.15,293.84c-1.1,1.04-3.1,2.27-4.67,2.98.27.35.65.98.83,1.33,1.58-.75,3.67-2,5.08-3.15l-1.25-1.17ZM51.61,294.95c1.35.9,3.13,2.27,3.98,3.17l1.04-1.29c-.92-.92-2.69-2.21-4.02-3.02l-1,1.15Z" style="fill:#545454;"/><path d="M76.02,280.84h4.94v-1.67h-4.94v-3.44h-1.75v3.44h-2.58c.25-.83.5-1.73.73-2.6l-1.71-.33c-.5,2.35-1.35,4.79-2.46,6.44.44.15,1.25.48,1.63.69.42-.69.83-1.56,1.21-2.52h3.19v2.56h-5.96v1.67h5.96v2.46h-4.81v8.5h1.67v-6.83h3.15v8.79h1.75v-8.79h3.38v5c0,.25-.08.31-.33.31-.25.02-1.06.02-2.13,0,.25.48.48,1.1.54,1.6,1.35,0,2.29-.04,2.85-.29.6-.31.73-.77.73-1.6v-6.69h-5.04v-2.46h5.9v-1.67h-5.9v-2.56ZM85.39,277.88h-1.71v13.48h1.71v-13.48ZM88.02,275.93v19.63c0,.42-.13.5-.52.52-.42,0-1.79,0-3.23-.04.25.56.5,1.4.58,1.92,1.81,0,3.17-.06,3.92-.38s1.02-.85,1.02-2.06v-19.58h-1.77Z" style="fill:#545454;"/><path d="M118.77,282.18v-3.06c0-.96.08-1.77.13-2.02h-2.21c.04.25.13,1.06.13,2.02v3.06h-7v-3.15c0-.85.1-1.54.13-1.79h-2.17c.02.25.08,1,.08,1.79v3.15h-2.6c-1.06,0-2.27-.13-2.48-.19v2.15c.29-.04,1.4-.1,2.48-.1h2.6v3.96c0,.94-.06,2-.08,2.23h2.15c-.02-.23-.1-1.31-.1-2.23v-3.96h7v1.02c0,6.88-2.23,8.98-6.69,10.69l1.63,1.54c5.63-2.5,7.02-5.85,7.02-12.4v-.85h2.69c1.08,0,1.98.04,2.23.06v-2.04c-.31.04-1.15.13-2.23.13h-2.69Z" style="fill:#545454;"/><path d="M146.95,282.05l-1.79.6c.52,1.1,1.65,4.21,1.92,5.31l1.81-.63c-.31-1.08-1.52-4.31-1.94-5.29ZM153.72,282.76c-.38,3.13-1.65,6.25-3.4,8.38-2,2.52-5.1,4.38-7.96,5.19l1.63,1.67c2.73-1.04,5.73-2.96,7.98-5.83,1.77-2.21,2.81-4.81,3.48-7.52.1-.31.19-.71.38-1.23l-2.1-.65ZM141.26,283.26l-1.81.73c.5.85,1.81,4.23,2.19,5.5l1.85-.69c-.46-1.27-1.73-4.48-2.23-5.54Z" style="fill:#545454;"/><path d="M188.68,281.28c-.42.08-.92.13-1.58.13h-5.83c.06-.81.1-1.65.13-2.52.04-.58.08-1.44.15-2.02h-2.29c.1.6.17,1.5.17,2.04,0,.88-.04,1.71-.1,2.5h-4.31c-.92,0-1.92-.04-2.79-.15v2.08c.88-.1,1.85-.1,2.83-.1h4.1c-.67,5.06-2.42,8.13-4.85,10.31-.73.71-1.73,1.4-2.5,1.81l1.77,1.46c4.08-2.81,6.65-6.54,7.52-13.58h6.85c0,2.63-.31,8.65-1.25,10.52-.27.6-.71.81-1.42.81-1.02,0-2.33-.1-3.65-.27l.25,2.02c1.27.08,2.69.15,3.94.15,1.35,0,2.13-.44,2.63-1.46,1.1-2.35,1.4-9.48,1.5-11.83,0-.33.04-.79.1-1.21l-1.35-.69Z" style="fill:#545454;"/><path d="M205.59,287.95c.75-.06,2.06-.13,3.4-.13h13.46c1.1,0,2.13.1,2.63.13v-2.4c-.54.04-1.42.13-2.65.13h-13.44c-1.35,0-2.67-.08-3.4-.13v2.4Z" style="fill:#545454;"/><path d="M256.8,279.86c-.4.15-.94.23-1.6.23h-6.67c.23-.35.42-.69.6-1.04.23-.46.69-1.27,1.1-1.92l-2.29-.75c-.15.65-.48,1.52-.75,1.94-1.06,2.21-3.46,5.75-7.71,8.27l1.71,1.29c2.67-1.79,4.73-3.98,6.19-6.04h8.29c-.5,2.23-2,5.4-3.9,7.65-2.23,2.6-5.29,4.83-9.79,6.15l1.77,1.6c4.6-1.69,7.52-3.96,9.75-6.67,2.19-2.65,3.67-5.98,4.33-8.44.15-.38.4-.96.58-1.29l-1.63-.98Z" style="fill:#545454;"/><path d="M291.17,283.49c-.25.15-.77.19-1.33.19h-12.92c-.67,0-1.5-.04-2.38-.15v2.06c.85-.04,1.79-.06,2.38-.06h13.02c-.46,1.75-1.44,3.83-2.92,5.42-2.08,2.17-5.15,3.77-8.63,4.48l1.52,1.73c3.1-.85,6.19-2.29,8.77-5.13,1.81-1.98,2.9-4.52,3.56-6.96.06-.17.21-.48.33-.71l-1.42-.88ZM276.73,279.93c.65-.04,1.44-.06,2.19-.06h9.6c.83,0,1.67.02,2.27.06v-2.02c-.6.1-1.46.13-2.23.13h-9.65c-.77,0-1.56-.02-2.19-.13v2.02Z" style="fill:#545454;"/><path d="M325.51,279.03c-.5-.94-1.38-2.4-1.96-3.23l-1.33.56c.54.77,1.29,2,1.79,2.94-.4.06-.73.06-1.04.06h-12.29c-.79,0-1.77-.06-2.44-.15v2.17c.6-.02,1.46-.08,2.42-.08h12.54c-.33,2.35-1.46,5.77-3.21,8-2.04,2.63-4.79,4.71-9.54,5.88l1.67,1.83c4.48-1.4,7.4-3.67,9.65-6.54,1.94-2.52,3.1-6.46,3.65-9.04.1-.48.21-.88.38-1.23l-1.21-.75.94-.42ZM325.36,275.72c.67.85,1.46,2.25,2,3.27l1.35-.6c-.52-.92-1.4-2.4-2-3.23l-1.35.56Z" style="fill:#545454;"/><path d="M356.16,296.15h-2.9v-7.1h-9.08v7.1h-2.9v-17.15h2.9v7.44h9.08v-7.44h2.9v17.15Z" style="fill:#545454;"/><path d="M370.15,279.01h6.83c2.17,0,3.84.52,5.02,1.54,1.18,1.02,1.77,2.45,1.77,4.31s-.59,3.45-1.77,4.52c-1.18,1.07-2.85,1.6-5.02,1.6h-3.94v5.17h-2.9v-17.15ZM373.05,281.59v6.79h3.81c2.76,0,4.15-1.15,4.15-3.46s-1.39-3.33-4.15-3.33h-3.81Z" style="fill:#545454;"/><path d="M402.75,280.84h4.94v-1.67h-4.94v-3.44h-1.75v3.44h-2.58c.25-.83.5-1.73.73-2.6l-1.71-.33c-.5,2.35-1.35,4.79-2.46,6.44.44.15,1.25.48,1.63.69.42-.69.83-1.56,1.21-2.52h3.19v2.56h-5.96v1.67h5.96v2.46h-4.81v8.5h1.67v-6.83h3.15v8.79h1.75v-8.79h3.38v5c0,.25-.08.31-.33.31-.25.02-1.06.02-2.13,0,.25.48.48,1.1.54,1.6,1.35,0,2.29-.04,2.85-.29.6-.31.73-.77.73-1.6v-6.69h-5.04v-2.46h5.9v-1.67h-5.9v-2.56ZM412.12,277.88h-1.71v13.48h1.71v-13.48ZM414.75,275.93v19.63c0,.42-.13.5-.52.52-.42,0-1.79,0-3.23-.04.25.56.5,1.4.58,1.92,1.81,0,3.17-.06,3.92-.38s1.02-.85,1.02-2.06v-19.58h-1.77Z" style="fill:#545454;"/><path d="M434.9,275.74c-1.38,3.73-3.65,7.38-6.06,9.73.35.4.88,1.4,1.06,1.81.83-.85,1.67-1.83,2.42-2.92v13.63h1.81v-16.44c.96-1.69,1.83-3.48,2.5-5.25l-1.73-.56ZM451.34,281.49v-1.75h-10.21c.5-1.08.96-2.19,1.35-3.31l-1.73-.46c-1.21,3.58-3.19,7.1-5.4,9.38.42.29,1.13.92,1.42,1.23,1.23-1.38,2.42-3.13,3.48-5.08h1.69v16.52h1.83v-5.92h7.33v-1.73h-7.33v-3.69h7v-1.69h-7v-3.5h7.56Z" style="fill:#545454;"/></svg>