<svg xmlns="http://www.w3.org/2000/svg" xmlns:xlink="http://www.w3.org/1999/xlink" width="500" zoomAndPan="magnify" viewBox="0 0 375 374.999991" height="500" preserveAspectRatio="xMidYMid meet" version="1.0"><defs><g/><clipPath id="81e5e0ad5d"><path d="M 134 148 L 244 148 L 244 203.839844 L 134 203.839844 Z M 134 148 " clip-rule="nonzero"/></clipPath><clipPath id="c329b1b674"><path d="M 164 97 L 318.300781 97 L 318.300781 147 L 164 147 Z M 164 97 " clip-rule="nonzero"/></clipPath><clipPath id="803fea77d3"><path d="M 56.550781 97 L 223 97 L 223 165 L 56.550781 165 Z M 56.550781 97 " clip-rule="nonzero"/></clipPath></defs><path fill="#7ed957" d="M 140.121094 109.957031 L 140.121094 98.546875 C 143.976562 96.90625 147.902344 95.460938 151.902344 94.214844 C 155.898438 92.96875 159.949219 91.929688 164.054688 91.089844 C 168.160156 90.253906 172.292969 89.625 176.460938 89.203125 C 180.628906 88.78125 184.808594 88.570312 188.996094 88.570312 C 193.183594 88.570312 197.363281 88.78125 201.53125 89.203125 C 205.695312 89.625 209.832031 90.253906 213.9375 91.089844 C 218.039062 91.929688 222.089844 92.96875 226.089844 94.214844 C 230.089844 95.460938 234.015625 96.90625 237.871094 98.546875 L 237.871094 108.441406 L 271.050781 102.34375 L 249.8125 102.449219 L 249.8125 90.804688 L 245.132812 88.6875 C 240.730469 86.703125 236.238281 84.957031 231.652344 83.449219 C 227.066406 81.941406 222.410156 80.683594 217.691406 79.667969 C 212.972656 78.652344 208.210938 77.890625 203.410156 77.382812 C 198.613281 76.871094 193.796875 76.617188 188.96875 76.617188 C 184.140625 76.617188 179.328125 76.871094 174.527344 77.382812 C 169.726562 77.890625 164.96875 78.652344 160.246094 79.667969 C 155.527344 80.683594 150.875 81.941406 146.289062 83.449219 C 141.703125 84.957031 137.210938 86.703125 132.808594 88.6875 L 128.117188 90.804688 L 128.117188 102.457031 L 103.757812 102.34375 Z M 140.121094 109.957031 " fill-opacity="1" fill-rule="nonzero"/><g clip-path="url(#81e5e0ad5d)"><path fill="#7ed957" d="M 230.265625 148.242188 C 229.15625 150.660156 227.933594 153.03125 226.601562 155.351562 C 222.914062 161.738281 218.464844 167.542969 213.253906 172.757812 C 208.039062 177.976562 202.238281 182.433594 195.855469 186.125 L 188.996094 190.078125 L 182.136719 186.125 C 175.746094 182.433594 169.941406 177.980469 164.722656 172.761719 C 159.503906 167.542969 155.046875 161.742188 151.355469 155.351562 L 150.746094 154.28125 C 148.800781 152.421875 147.015625 150.421875 145.386719 148.277344 L 134.730469 148.277344 C 136.699219 153.316406 139.074219 158.152344 141.863281 162.789062 C 144.648438 167.425781 147.804688 171.796875 151.328125 175.898438 C 154.855469 180.003906 158.699219 183.78125 162.863281 187.234375 C 167.027344 190.6875 171.449219 193.769531 176.132812 196.472656 L 188.996094 203.875 L 201.855469 196.472656 C 206.546875 193.765625 210.972656 190.6875 215.140625 187.230469 C 219.308594 183.773438 223.15625 179.996094 226.683594 175.886719 C 230.214844 171.78125 233.371094 167.410156 236.160156 162.769531 C 238.949219 158.128906 241.328125 153.285156 243.296875 148.242188 Z M 230.265625 148.242188 " fill-opacity="1" fill-rule="nonzero"/></g><g clip-path="url(#c329b1b674)"><path fill="#00bf63" d="M 299.84375 117.941406 C 307.304688 117.496094 318.066406 97.679688 318.066406 97.679688 L 224.605469 114.828125 C 221.136719 115.46875 217.757812 115.152344 214.46875 113.886719 L 194.519531 106.203125 C 193.621094 105.855469 192.695312 105.628906 191.738281 105.519531 C 190.785156 105.410156 189.832031 105.417969 188.878906 105.550781 C 187.925781 105.683594 187.003906 105.933594 186.117188 106.296875 C 185.226562 106.664062 184.398438 107.136719 183.628906 107.710938 L 165.363281 121.429688 C 165.015625 121.695312 164.839844 122.046875 164.839844 122.484375 C 164.839844 122.921875 165.011719 123.273438 165.363281 123.53125 C 166.195312 124.152344 167.101562 124.625 168.085938 124.949219 C 169.070312 125.277344 170.078125 125.4375 171.113281 125.4375 C 172.148438 125.4375 173.160156 125.277344 174.140625 124.949219 C 175.125 124.625 176.03125 124.152344 176.863281 123.53125 L 184.332031 117.925781 C 184.78125 117.589844 185.25 117.292969 185.746094 117.035156 C 186.242188 116.777344 186.757812 116.5625 187.289062 116.386719 C 187.816406 116.210938 188.359375 116.078125 188.910156 115.988281 C 189.464844 115.898438 190.019531 115.855469 190.578125 115.855469 C 191.136719 115.855469 191.691406 115.898438 192.242188 115.988281 C 192.796875 116.078125 193.335938 116.210938 193.867188 116.386719 C 194.398438 116.5625 194.910156 116.777344 195.40625 117.035156 C 195.902344 117.292969 196.375 117.589844 196.824219 117.925781 L 223.351562 137.894531 C 224.191406 138.503906 224.882812 139.25 225.429688 140.128906 C 225.976562 141.007812 226.339844 141.957031 226.515625 142.976562 L 226.515625 143.039062 C 226.59375 143.429688 226.789062 143.75 227.097656 144 C 227.410156 144.25 227.765625 144.367188 228.164062 144.359375 C 228.164062 144.359375 259.339844 145.808594 269.535156 146.929688 C 274.472656 147.480469 284.96875 137.5 284.96875 137.5 L 258.800781 133.03125 C 268.984375 133.796875 282.148438 134.6875 289.015625 134.695312 C 294.90625 134.695312 305.871094 121.019531 305.871094 121.019531 L 243.546875 121.429688 C 243.546875 121.429688 284.394531 118.867188 299.84375 117.941406 Z M 299.84375 117.941406 " fill-opacity="1" fill-rule="nonzero"/></g><g clip-path="url(#803fea77d3)"><path fill="#00bf63" d="M 222.753906 143.808594 C 222.675781 143.242188 222.488281 142.710938 222.1875 142.21875 C 221.890625 141.726562 221.507812 141.3125 221.039062 140.980469 L 194.457031 121.003906 C 193.890625 120.574219 193.269531 120.25 192.597656 120.027344 C 191.921875 119.800781 191.230469 119.6875 190.523438 119.6875 C 189.8125 119.6875 189.121094 119.800781 188.449219 120.027344 C 187.773438 120.25 187.152344 120.574219 186.585938 121.003906 L 179.117188 126.601562 C 178.539062 127.03125 177.929688 127.414062 177.292969 127.746094 C 176.652344 128.082031 175.992188 128.359375 175.304688 128.589844 C 174.621094 128.816406 173.921875 128.984375 173.210938 129.101562 C 172.5 129.214844 171.785156 129.273438 171.0625 129.273438 C 170.339844 129.273438 169.625 129.214844 168.914062 129.101562 C 168.203125 128.984375 167.503906 128.816406 166.820312 128.589844 C 166.132812 128.359375 165.472656 128.082031 164.832031 127.746094 C 164.195312 127.414062 163.585938 127.03125 163.007812 126.601562 C 162.335938 126.097656 161.816406 125.46875 161.453125 124.710938 C 161.089844 123.953125 160.921875 123.152344 160.949219 122.3125 C 160.992188 121.503906 161.207031 120.742188 161.59375 120.027344 C 161.984375 119.316406 162.503906 118.71875 163.160156 118.242188 L 176.023438 108.59375 C 176.269531 108.449219 176.4375 108.238281 176.519531 107.964844 C 176.601562 107.6875 176.582031 107.421875 176.453125 107.164062 C 176.324219 106.902344 176.128906 106.722656 175.859375 106.621094 C 175.589844 106.519531 175.320312 106.523438 175.054688 106.632812 L 153.910156 114.015625 C 150.621094 115.167969 147.269531 115.382812 143.859375 114.664062 L 135.964844 113.121094 L 135.964844 113.070312 C 135.644531 113.027344 135.378906 112.984375 135.175781 112.941406 L 56.949219 97.679688 C 56.949219 97.679688 67.710938 117.496094 75.171875 117.941406 C 90.605469 118.867188 131.453125 121.507812 131.453125 121.507812 L 69.117188 121.097656 C 69.117188 121.097656 80.101562 134.789062 85.984375 134.773438 C 92.84375 134.773438 106.011719 133.914062 116.199219 133.109375 L 90.023438 137.578125 C 90.023438 137.578125 100.542969 147.53125 105.457031 147.007812 C 112.195312 146.253906 145.679688 144.4375 145.753906 144.4375 C 147.042969 144.4375 147.46875 144.632812 147.863281 145.15625 C 148.941406 146.648438 150.101562 148.070312 151.34375 149.425781 C 152.585938 150.777344 153.90625 152.054688 155.300781 153.253906 C 156.695312 154.449219 158.15625 155.5625 159.683594 156.585938 C 161.210938 157.613281 162.792969 158.542969 164.429688 159.382812 C 166.0625 160.222656 167.746094 160.960938 169.46875 161.597656 C 171.191406 162.238281 172.949219 162.773438 174.734375 163.207031 C 176.523438 163.636719 178.328125 163.960938 180.15625 164.179688 C 181.980469 164.398438 183.8125 164.507812 185.652344 164.507812 L 185.78125 164.507812 C 186.066406 164.515625 186.347656 164.472656 186.621094 164.386719 C 186.894531 164.300781 187.148438 164.171875 187.378906 164.003906 C 187.613281 163.835938 187.8125 163.636719 187.976562 163.402344 C 188.144531 163.167969 188.269531 162.914062 188.351562 162.640625 C 188.542969 162.09375 188.5625 161.542969 188.402344 160.984375 C 188.246094 160.429688 187.945312 159.96875 187.496094 159.605469 L 183.664062 156.714844 C 183.457031 156.566406 183.289062 156.386719 183.152344 156.175781 C 183.015625 155.960938 182.921875 155.734375 182.871094 155.484375 C 182.824219 155.238281 182.820312 154.992188 182.867188 154.742188 C 182.910156 154.496094 183 154.261719 183.128906 154.046875 C 183.277344 153.828125 183.464844 153.648438 183.683594 153.507812 C 183.90625 153.363281 184.148438 153.269531 184.40625 153.226562 C 184.667969 153.183594 184.925781 153.191406 185.183594 153.253906 C 185.4375 153.316406 185.671875 153.425781 185.882812 153.585938 L 189.683594 156.441406 L 189.863281 156.578125 L 196.316406 161.4375 C 196.65625 161.691406 197.027344 161.886719 197.429688 162.019531 C 197.832031 162.15625 198.242188 162.222656 198.667969 162.222656 C 199.089844 162.222656 199.503906 162.15625 199.90625 162.019531 C 200.308594 161.886719 200.679688 161.691406 201.015625 161.4375 C 201.765625 160.898438 202.25 160.179688 202.472656 159.285156 C 202.574219 158.914062 202.621094 158.53125 202.609375 158.144531 C 202.597656 157.757812 202.527344 157.378906 202.402344 157.015625 C 202.277344 156.648438 202.101562 156.308594 201.871094 155.992188 C 201.644531 155.679688 201.378906 155.40625 201.070312 155.171875 L 193.28125 149.339844 C 193.097656 149.207031 192.945312 149.046875 192.816406 148.859375 C 192.6875 148.671875 192.59375 148.46875 192.535156 148.25 C 192.480469 148.03125 192.460938 147.804688 192.480469 147.582031 C 192.5 147.355469 192.554688 147.136719 192.648438 146.929688 C 192.773438 146.671875 192.945312 146.449219 193.171875 146.269531 C 193.394531 146.085938 193.648438 145.960938 193.925781 145.894531 C 194.207031 145.828125 194.488281 145.820312 194.769531 145.878906 C 195.050781 145.9375 195.308594 146.054688 195.539062 146.226562 L 203.347656 152.074219 L 207.6875 155.34375 C 208.015625 155.601562 208.378906 155.800781 208.769531 155.949219 C 209.160156 156.09375 209.566406 156.175781 209.984375 156.195312 C 210.402344 156.214844 210.8125 156.171875 211.21875 156.066406 C 211.621094 155.957031 212 155.789062 212.351562 155.566406 C 212.613281 155.394531 212.847656 155.191406 213.058594 154.964844 C 213.269531 154.734375 213.453125 154.484375 213.605469 154.210938 C 213.753906 153.941406 213.875 153.652344 213.957031 153.351562 C 214.039062 153.050781 214.085938 152.746094 214.097656 152.433594 C 214.109375 152.125 214.082031 151.816406 214.019531 151.511719 C 213.957031 151.207031 213.855469 150.910156 213.722656 150.628906 C 213.589844 150.347656 213.425781 150.085938 213.230469 149.84375 C 213.035156 149.601562 212.8125 149.382812 212.566406 149.195312 L 202.765625 141.8125 C 202.582031 141.679688 202.425781 141.519531 202.296875 141.332031 C 202.167969 141.144531 202.074219 140.941406 202.015625 140.722656 C 201.957031 140.503906 201.9375 140.28125 201.957031 140.054688 C 201.972656 139.828125 202.03125 139.609375 202.121094 139.402344 C 202.246094 139.144531 202.421875 138.921875 202.644531 138.742188 C 202.871094 138.558594 203.121094 138.433594 203.402344 138.367188 C 203.679688 138.296875 203.960938 138.292969 204.246094 138.351562 C 204.527344 138.410156 204.78125 138.527344 205.011719 138.699219 L 214.847656 146.097656 L 214.890625 146.097656 L 216.3125 147.171875 C 216.726562 147.480469 217.183594 147.707031 217.683594 147.84375 C 218.179688 147.980469 218.6875 148.023438 219.203125 147.972656 C 219.714844 147.917969 220.203125 147.777344 220.664062 147.539062 C 221.125 147.304688 221.527344 146.992188 221.871094 146.605469 C 222.542969 145.792969 222.835938 144.859375 222.753906 143.808594 Z M 222.753906 143.808594 " fill-opacity="1" fill-rule="nonzero"/></g><g fill="#000000" fill-opacity="1"><g transform="translate(27.977146, 263.588264)"><g><path d="M 11.265625 0 L 11.265625 -11.46875 L 0.046875 -33.71875 L 8.875 -33.71875 L 15.484375 -19.796875 L 15.828125 -19.796875 L 22.390625 -33.71875 L 31.015625 -33.71875 L 19.796875 -11.46875 L 19.796875 0 Z M 11.265625 0 "/></g></g></g><g fill="#000000" fill-opacity="1"><g transform="translate(63.74969, 263.588264)"><g><path d="M 17.34375 0.390625 C 12.601562 0.390625 9.226562 -0.101562 7.21875 -1.09375 C 5.21875 -2.09375 3.960938 -3.6875 3.453125 -5.875 C 2.941406 -8.0625 2.6875 -11.722656 2.6875 -16.859375 C 2.6875 -21.984375 2.941406 -25.640625 3.453125 -27.828125 C 3.960938 -30.015625 5.21875 -31.609375 7.21875 -32.609375 C 9.226562 -33.609375 12.601562 -34.109375 17.34375 -34.109375 C 22.082031 -34.109375 25.457031 -33.609375 27.46875 -32.609375 C 29.476562 -31.609375 30.726562 -30.015625 31.21875 -27.828125 C 31.707031 -25.640625 31.953125 -21.984375 31.953125 -16.859375 C 31.953125 -11.722656 31.707031 -8.0625 31.21875 -5.875 C 30.726562 -3.6875 29.476562 -2.09375 27.46875 -1.09375 C 25.457031 -0.101562 22.082031 0.390625 17.34375 0.390625 Z M 17.34375 -6.515625 C 19.46875 -6.515625 20.890625 -6.6875 21.609375 -7.03125 C 22.328125 -7.375 22.785156 -8.164062 22.984375 -9.40625 C 23.179688 -10.644531 23.28125 -13.128906 23.28125 -16.859375 C 23.28125 -20.578125 23.179688 -23.054688 22.984375 -24.296875 C 22.785156 -25.546875 22.328125 -26.335938 21.609375 -26.671875 C 20.890625 -27.015625 19.46875 -27.1875 17.34375 -27.1875 C 15.21875 -27.1875 13.78125 -27.015625 13.03125 -26.671875 C 12.28125 -26.335938 11.804688 -25.53125 11.609375 -24.25 C 11.410156 -22.976562 11.3125 -20.515625 11.3125 -16.859375 C 11.3125 -13.203125 11.410156 -10.734375 11.609375 -9.453125 C 11.804688 -8.179688 12.28125 -7.375 13.03125 -7.03125 C 13.78125 -6.6875 15.21875 -6.515625 17.34375 -6.515625 Z M 17.34375 -6.515625 "/></g></g></g><g fill="#000000" fill-opacity="1"><g transform="translate(103.050451, 263.588264)"><g><path d="M 30.328125 -33.71875 L 30.328125 -15.234375 C 30.328125 -10.734375 30.054688 -7.441406 29.515625 -5.359375 C 28.984375 -3.285156 27.785156 -1.804688 25.921875 -0.921875 C 24.054688 -0.046875 21.019531 0.390625 16.8125 0.390625 C 12.59375 0.390625 9.550781 -0.046875 7.6875 -0.921875 C 5.832031 -1.804688 4.632812 -3.285156 4.09375 -5.359375 C 3.550781 -7.441406 3.28125 -10.734375 3.28125 -15.234375 L 3.28125 -33.71875 L 11.8125 -33.71875 L 11.8125 -13.421875 C 11.8125 -11.109375 11.890625 -9.507812 12.046875 -8.625 C 12.210938 -7.738281 12.625 -7.148438 13.28125 -6.859375 C 13.9375 -6.566406 15.113281 -6.421875 16.8125 -6.421875 C 18.507812 -6.421875 19.679688 -6.566406 20.328125 -6.859375 C 20.984375 -7.148438 21.394531 -7.738281 21.5625 -8.625 C 21.726562 -9.507812 21.8125 -11.109375 21.8125 -13.421875 L 21.8125 -33.71875 Z M 30.328125 -33.71875 "/></g></g></g><g fill="#000000" fill-opacity="1"><g transform="translate(141.37116, 263.588264)"><g><path d="M 22.4375 0 L 18.03125 -11.8125 L 12.109375 -11.8125 L 12.109375 0 L 3.578125 0 L 3.578125 -33.71875 L 19.75 -33.71875 C 22.851562 -33.71875 25.195312 -33.28125 26.78125 -32.40625 C 28.363281 -31.539062 29.40625 -30.347656 29.90625 -28.828125 C 30.414062 -27.316406 30.671875 -25.285156 30.671875 -22.734375 C 30.671875 -20.378906 30.367188 -18.335938 29.765625 -16.609375 C 29.160156 -14.878906 27.960938 -13.625 26.171875 -12.84375 L 31.359375 0 Z M 16.515625 -18.578125 C 18.273438 -18.578125 19.519531 -18.671875 20.25 -18.859375 C 20.988281 -19.054688 21.472656 -19.425781 21.703125 -19.96875 C 21.929688 -20.507812 22.046875 -21.414062 22.046875 -22.6875 C 22.046875 -23.988281 21.945312 -24.910156 21.75 -25.453125 C 21.5625 -25.992188 21.097656 -26.363281 20.359375 -26.5625 C 19.617188 -26.757812 18.367188 -26.859375 16.609375 -26.859375 L 12.109375 -26.859375 L 12.109375 -18.578125 Z M 16.515625 -18.578125 "/></g></g></g><g fill="#000000" fill-opacity="1"><g transform="translate(179.299828, 263.588264)"><g/></g></g><g fill="#000000" fill-opacity="1"><g transform="translate(196.304268, 263.588264)"><g><path d="M 10.09375 0 L 10.09375 -26.453125 L 0.78125 -26.453125 L 0.78125 -33.71875 L 27.984375 -33.71875 L 27.984375 -26.453125 L 18.625 -26.453125 L 18.625 0 Z M 10.09375 0 "/></g></g></g><g fill="#000000" fill-opacity="1"><g transform="translate(229.675672, 263.588264)"><g><path d="M 3.578125 0 L 3.578125 -33.71875 L 27.484375 -33.71875 L 27.484375 -26.796875 L 12.109375 -26.796875 L 12.109375 -20.484375 L 25.140625 -20.484375 L 25.140625 -13.578125 L 12.109375 -13.578125 L 12.109375 -6.90625 L 27.484375 -6.90625 L 27.484375 0 Z M 3.578125 0 "/></g></g></g><g fill="#000000" fill-opacity="1"><g transform="translate(264.46817, 263.588264)"><g><path d="M 24.84375 0 L 22.828125 -6.375 L 10.828125 -6.375 L 8.921875 0 L 0.390625 0 L 11.171875 -33.71875 L 22.734375 -33.71875 L 33.515625 0 Z M 16.90625 -26.171875 L 16.65625 -26.171875 L 12.78125 -13.28125 L 20.828125 -13.28125 Z M 16.90625 -26.171875 "/></g></g></g><g fill="#000000" fill-opacity="1"><g transform="translate(303.033893, 263.588264)"><g><path d="M 32.296875 0 L 32.296875 -21.46875 L 31.953125 -21.46875 L 24.75 0 L 18.96875 0 L 11.765625 -21.46875 L 11.421875 -21.46875 L 11.421875 0 L 3.484375 0 L 3.484375 -33.71875 L 15.1875 -33.71875 L 21.859375 -14.265625 L 22.203125 -14.265625 L 28.8125 -33.71875 L 40.46875 -33.71875 L 40.46875 0 Z M 32.296875 0 "/></g></g></g><g fill="#545454" fill-opacity="1"><g transform="translate(17.542316, 298.732863)"><g><path d="M 5.015625 -5.625 C 5.15625 -6.703125 5.21875 -7.75 5.21875 -8.703125 L 13.609375 -8.703125 L 13.609375 -5.625 Z M 13.609375 -13.0625 L 13.609375 -10.015625 L 5.21875 -10.015625 L 5.21875 -13.0625 Z M 15.03125 -14.40625 L 3.84375 -14.40625 L 3.84375 -8.78125 C 3.84375 -5.859375 3.546875 -2.125 0.625 0.4375 C 0.90625 0.640625 1.453125 1.140625 1.640625 1.4375 C 3.421875 -0.125 4.34375 -2.203125 4.796875 -4.28125 L 13.609375 -4.28125 L 13.609375 -0.609375 C 13.609375 -0.203125 13.46875 -0.078125 13.046875 -0.0625 C 12.625 -0.0625 11.15625 -0.03125 9.609375 -0.09375 C 9.84375 0.296875 10.109375 0.9375 10.203125 1.328125 C 12.171875 1.328125 13.375 1.296875 14.078125 1.0625 C 14.75 0.84375 15.03125 0.375 15.03125 -0.59375 Z M 15.03125 -14.40625 "/></g></g></g><g fill="#545454" fill-opacity="1"><g transform="translate(43.032454, 298.732863)"><g><path d="M 15.5625 -8.6875 L 11.28125 -8.6875 L 11.28125 -10.40625 L 15.5625 -10.40625 Z M 15.5625 -5.921875 L 11.28125 -5.921875 L 11.28125 -7.640625 L 15.5625 -7.640625 Z M 15.5625 -3.140625 L 11.28125 -3.140625 L 11.28125 -4.875 L 15.5625 -4.875 Z M 10.015625 -11.5 L 10.015625 -2.015625 L 16.890625 -2.015625 L 16.890625 -11.5 L 13.5625 -11.5 C 13.71875 -12.046875 13.890625 -12.703125 14.078125 -13.328125 L 17.46875 -13.328125 L 17.46875 -14.5 L 9.484375 -14.5 L 9.484375 -13.328125 L 12.78125 -13.328125 C 12.703125 -12.734375 12.5625 -12.046875 12.4375 -11.5 Z M 2.265625 -12.484375 L 7.8125 -12.484375 L 7.8125 -10.53125 L 8.90625 -10.53125 L 8.90625 -13.609375 L 5.84375 -13.609375 C 5.640625 -14.125 5.3125 -14.828125 5.046875 -15.359375 L 3.984375 -14.96875 C 4.171875 -14.546875 4.375 -14.078125 4.53125 -13.609375 L 1.21875 -13.609375 L 1.21875 -10.53125 L 2.265625 -10.53125 Z M 2.734375 -4.25 C 3.625 -4.71875 4.5 -5.34375 5.28125 -6.078125 C 6.328125 -5.421875 7.3125 -4.734375 7.96875 -4.25 Z M 3.484375 -0.34375 L 3.484375 -3.125 L 6.78125 -3.125 L 6.78125 -0.34375 Z M 8.9375 -5.109375 C 8.25 -5.609375 7.203125 -6.28125 6.09375 -6.953125 C 6.90625 -7.859375 7.578125 -8.9375 8.046875 -10.140625 L 7.34375 -10.65625 L 7.140625 -10.609375 L 4.46875 -10.609375 C 4.65625 -10.953125 4.78125 -11.296875 4.90625 -11.671875 L 3.828125 -11.875 C 3.375 -10.625 2.484375 -9.1875 1.0625 -8.1875 C 1.28125 -8.015625 1.640625 -7.546875 1.796875 -7.28125 C 2.671875 -7.9375 3.34375 -8.703125 3.890625 -9.53125 L 6.5 -9.53125 C 6.140625 -8.8125 5.640625 -8.15625 5.09375 -7.546875 C 4.578125 -7.859375 4.0625 -8.15625 3.625 -8.390625 L 2.84375 -7.59375 C 3.265625 -7.328125 3.75 -7.0625 4.21875 -6.75 C 3.15625 -5.859375 1.90625 -5.1875 0.65625 -4.71875 C 0.90625 -4.484375 1.25 -3.90625 1.375 -3.59375 C 1.6875 -3.71875 2 -3.859375 2.3125 -4.03125 L 2.3125 1.34375 L 3.484375 1.34375 L 3.484375 0.765625 L 6.78125 0.765625 L 6.78125 1.296875 L 8 1.296875 L 8 -4.21875 L 8.125 -4.140625 Z M 12 -1.734375 C 11.171875 -0.953125 9.671875 -0.03125 8.5 0.5 C 8.703125 0.765625 8.984375 1.234375 9.125 1.5 C 10.3125 0.9375 11.875 0 12.9375 -0.859375 Z M 13.84375 -0.90625 C 14.859375 -0.234375 16.1875 0.796875 16.828125 1.46875 L 17.609375 0.5 C 16.921875 -0.1875 15.59375 -1.15625 14.59375 -1.765625 Z M 13.84375 -0.90625 "/></g></g></g><g fill="#545454" fill-opacity="1"><g transform="translate(68.522592, 298.732863)"><g><path d="M 6.65625 -11.484375 L 10.359375 -11.484375 L 10.359375 -12.734375 L 6.65625 -12.734375 L 6.65625 -15.3125 L 5.34375 -15.3125 L 5.34375 -12.734375 L 3.40625 -12.734375 C 3.59375 -13.359375 3.78125 -14.03125 3.953125 -14.6875 L 2.671875 -14.9375 C 2.296875 -13.171875 1.65625 -11.34375 0.828125 -10.109375 C 1.15625 -10 1.765625 -9.75 2.046875 -9.59375 C 2.359375 -10.109375 2.671875 -10.765625 2.953125 -11.484375 L 5.34375 -11.484375 L 5.34375 -9.5625 L 0.875 -9.5625 L 0.875 -8.3125 L 5.34375 -8.3125 L 5.34375 -6.46875 L 1.734375 -6.46875 L 1.734375 -0.09375 L 2.984375 -0.09375 L 2.984375 -5.21875 L 5.34375 -5.21875 L 5.34375 1.375 L 6.65625 1.375 L 6.65625 -5.21875 L 9.1875 -5.21875 L 9.1875 -1.46875 C 9.1875 -1.28125 9.125 -1.234375 8.9375 -1.234375 C 8.75 -1.21875 8.140625 -1.21875 7.34375 -1.234375 C 7.53125 -0.875 7.703125 -0.40625 7.75 -0.03125 C 8.765625 -0.03125 9.46875 -0.0625 9.890625 -0.25 C 10.34375 -0.484375 10.4375 -0.828125 10.4375 -1.453125 L 10.4375 -6.46875 L 6.65625 -6.46875 L 6.65625 -8.3125 L 11.078125 -8.3125 L 11.078125 -9.5625 L 6.65625 -9.5625 Z M 13.6875 -13.703125 L 12.40625 -13.703125 L 12.40625 -3.59375 L 13.6875 -3.59375 Z M 15.65625 -15.171875 L 15.65625 -0.453125 C 15.65625 -0.140625 15.5625 -0.078125 15.265625 -0.0625 C 14.953125 -0.0625 13.921875 -0.0625 12.84375 -0.09375 C 13.03125 0.328125 13.21875 0.953125 13.28125 1.34375 C 14.640625 1.34375 15.65625 1.296875 16.21875 1.0625 C 16.78125 0.828125 16.984375 0.421875 16.984375 -0.484375 L 16.984375 -15.171875 Z M 15.65625 -15.171875 "/></g></g></g><g fill="#545454" fill-opacity="1"><g transform="translate(94.012731, 298.732863)"><g><path d="M 13.234375 -10.484375 L 13.234375 -12.78125 C 13.234375 -13.5 13.296875 -14.109375 13.328125 -14.296875 L 11.671875 -14.296875 C 11.703125 -14.109375 11.765625 -13.5 11.765625 -12.78125 L 11.765625 -10.484375 L 6.515625 -10.484375 L 6.515625 -12.84375 C 6.515625 -13.484375 6.59375 -14 6.609375 -14.1875 L 4.984375 -14.1875 C 5 -14 5.046875 -13.4375 5.046875 -12.84375 L 5.046875 -10.484375 L 3.09375 -10.484375 C 2.296875 -10.484375 1.390625 -10.578125 1.234375 -10.625 L 1.234375 -9.015625 C 1.453125 -9.046875 2.28125 -9.09375 3.09375 -9.09375 L 5.046875 -9.09375 L 5.046875 -6.125 C 5.046875 -5.421875 5 -4.625 4.984375 -4.453125 L 6.59375 -4.453125 C 6.578125 -4.625 6.515625 -5.4375 6.515625 -6.125 L 6.515625 -9.09375 L 11.765625 -9.09375 L 11.765625 -8.328125 C 11.765625 -3.171875 10.09375 -1.59375 6.75 -0.3125 L 7.96875 0.84375 C 12.1875 -1.03125 13.234375 -3.546875 13.234375 -8.453125 L 13.234375 -9.09375 L 15.25 -9.09375 C 16.0625 -9.09375 16.734375 -9.0625 16.921875 -9.046875 L 16.921875 -10.578125 C 16.6875 -10.546875 16.0625 -10.484375 15.25 -10.484375 Z M 13.234375 -10.484375 "/></g></g></g><g fill="#545454" fill-opacity="1"><g transform="translate(119.502867, 298.732863)"><g><path d="M 8.875 -10.578125 L 7.53125 -10.125 C 7.921875 -9.296875 8.765625 -6.96875 8.96875 -6.140625 L 10.328125 -6.609375 C 10.09375 -7.421875 9.1875 -9.84375 8.875 -10.578125 Z M 13.953125 -10.046875 C 13.671875 -7.703125 12.71875 -5.359375 11.40625 -3.765625 C 9.90625 -1.875 7.578125 -0.484375 5.4375 0.125 L 6.65625 1.375 C 8.703125 0.59375 10.953125 -0.84375 12.640625 -3 C 13.96875 -4.65625 14.75 -6.609375 15.25 -8.640625 C 15.328125 -8.875 15.390625 -9.171875 15.53125 -9.5625 Z M 4.609375 -9.671875 L 3.25 -9.125 C 3.625 -8.484375 4.609375 -5.953125 4.890625 -5 L 6.28125 -5.515625 C 5.9375 -6.46875 4.984375 -8.875 4.609375 -9.671875 Z M 4.609375 -9.671875 "/></g></g></g><g fill="#545454" fill-opacity="1"><g transform="translate(144.993003, 298.732863)"><g><path d="M 14.6875 -11.15625 C 14.375 -11.09375 14 -11.0625 13.5 -11.0625 L 9.125 -11.0625 C 9.171875 -11.671875 9.203125 -12.296875 9.21875 -12.953125 C 9.25 -13.390625 9.28125 -14.03125 9.328125 -14.46875 L 7.609375 -14.46875 C 7.6875 -14.015625 7.734375 -13.34375 7.734375 -12.9375 C 7.734375 -12.28125 7.703125 -11.65625 7.65625 -11.0625 L 4.421875 -11.0625 C 3.734375 -11.0625 2.984375 -11.09375 2.328125 -11.171875 L 2.328125 -9.609375 C 2.984375 -9.6875 3.71875 -9.6875 4.453125 -9.6875 L 7.53125 -9.6875 C 7.03125 -5.890625 5.71875 -3.59375 3.890625 -1.953125 C 3.34375 -1.421875 2.59375 -0.90625 2.015625 -0.59375 L 3.34375 0.5 C 6.40625 -1.609375 8.328125 -4.40625 8.984375 -9.6875 L 14.125 -9.6875 C 14.125 -7.71875 13.890625 -3.203125 13.1875 -1.796875 C 12.984375 -1.34375 12.65625 -1.1875 12.125 -1.1875 C 11.359375 -1.1875 10.375 -1.265625 9.390625 -1.390625 L 9.578125 0.125 C 10.53125 0.1875 11.59375 0.234375 12.53125 0.234375 C 13.546875 0.234375 14.125 -0.09375 14.5 -0.859375 C 15.328125 -2.625 15.546875 -7.96875 15.625 -9.734375 C 15.625 -9.984375 15.65625 -10.328125 15.703125 -10.640625 Z M 14.6875 -11.15625 "/></g></g></g><g fill="#545454" fill-opacity="1"><g transform="translate(170.483146, 298.732863)"><g><path d="M 1.875 -6.15625 C 2.4375 -6.203125 3.421875 -6.25 4.421875 -6.25 L 14.515625 -6.25 C 15.34375 -6.25 16.109375 -6.171875 16.484375 -6.15625 L 16.484375 -7.953125 C 16.078125 -7.921875 15.421875 -7.859375 14.5 -7.859375 L 4.421875 -7.859375 C 3.40625 -7.859375 2.421875 -7.921875 1.875 -7.953125 Z M 1.875 -6.15625 "/></g></g></g><g fill="#545454" fill-opacity="1"><g transform="translate(195.973289, 298.732863)"><g><path d="M 14.796875 -12.21875 C 14.5 -12.109375 14.09375 -12.046875 13.59375 -12.046875 L 8.59375 -12.046875 C 8.765625 -12.3125 8.90625 -12.5625 9.046875 -12.828125 C 9.21875 -13.171875 9.5625 -13.78125 9.875 -14.265625 L 8.15625 -14.828125 C 8.046875 -14.34375 7.796875 -13.6875 7.59375 -13.375 C 6.796875 -11.71875 5 -9.0625 1.8125 -7.171875 L 3.09375 -6.203125 C 5.09375 -7.546875 6.640625 -9.1875 7.734375 -10.734375 L 13.953125 -10.734375 C 13.578125 -9.0625 12.453125 -6.6875 11.03125 -5 C 9.359375 -3.046875 7.0625 -1.375 3.6875 -0.390625 L 5.015625 0.8125 C 8.46875 -0.453125 10.65625 -2.15625 12.328125 -4.1875 C 13.96875 -6.171875 15.078125 -8.671875 15.578125 -10.515625 C 15.6875 -10.796875 15.875 -11.234375 16.015625 -11.484375 Z M 14.796875 -12.21875 "/></g></g></g><g fill="#545454" fill-opacity="1"><g transform="translate(221.463431, 298.732863)"><g><path d="M 15.078125 -9.5 C 14.890625 -9.390625 14.5 -9.359375 14.078125 -9.359375 L 4.390625 -9.359375 C 3.890625 -9.359375 3.265625 -9.390625 2.609375 -9.46875 L 2.609375 -7.921875 C 3.25 -7.953125 3.953125 -7.96875 4.390625 -7.96875 L 14.15625 -7.96875 C 13.8125 -6.65625 13.078125 -5.09375 11.96875 -3.90625 C 10.40625 -2.28125 8.109375 -1.078125 5.5 -0.546875 L 6.640625 0.75 C 8.96875 0.109375 11.28125 -0.96875 13.21875 -3.09375 C 14.578125 -4.578125 15.390625 -6.484375 15.890625 -8.3125 C 15.9375 -8.4375 16.046875 -8.671875 16.140625 -8.84375 Z M 4.25 -12.171875 C 4.734375 -12.203125 5.328125 -12.21875 5.890625 -12.21875 L 13.09375 -12.21875 C 13.71875 -12.21875 14.34375 -12.203125 14.796875 -12.171875 L 14.796875 -13.6875 C 14.34375 -13.609375 13.703125 -13.59375 13.125 -13.59375 L 5.890625 -13.59375 C 5.3125 -13.59375 4.71875 -13.609375 4.25 -13.6875 Z M 4.25 -12.171875 "/></g></g></g><g fill="#545454" fill-opacity="1"><g transform="translate(246.953574, 298.732863)"><g><path d="M 15.34375 -12.84375 C 14.96875 -13.546875 14.3125 -14.640625 13.875 -15.265625 L 12.875 -14.84375 C 13.28125 -14.265625 13.84375 -13.34375 14.21875 -12.640625 C 13.921875 -12.59375 13.671875 -12.59375 13.4375 -12.59375 L 4.21875 -12.59375 C 3.625 -12.59375 2.890625 -12.640625 2.390625 -12.703125 L 2.390625 -11.078125 C 2.84375 -11.09375 3.484375 -11.140625 4.203125 -11.140625 L 13.609375 -11.140625 C 13.359375 -9.375 12.515625 -6.8125 11.203125 -5.140625 C 9.671875 -3.171875 7.609375 -1.609375 4.046875 -0.734375 L 5.296875 0.640625 C 8.65625 -0.40625 10.84375 -2.109375 12.53125 -4.265625 C 13.984375 -6.15625 14.859375 -9.109375 15.265625 -11.046875 C 15.34375 -11.40625 15.421875 -11.703125 15.546875 -11.96875 L 14.640625 -12.53125 Z M 15.234375 -15.328125 C 15.734375 -14.6875 16.328125 -13.640625 16.734375 -12.875 L 17.75 -13.328125 C 17.359375 -14.015625 16.703125 -15.125 16.25 -15.75 Z M 15.234375 -15.328125 "/></g></g></g><g fill="#545454" fill-opacity="1"><g transform="translate(272.443715, 298.732863)"><g><path d="M 12.84375 0 L 10.671875 0 L 10.671875 -5.328125 L 3.859375 -5.328125 L 3.859375 0 L 1.6875 0 L 1.6875 -12.859375 L 3.859375 -12.859375 L 3.859375 -7.28125 L 10.671875 -7.28125 L 10.671875 -12.859375 L 12.84375 -12.859375 Z M 12.84375 0 "/></g></g></g><g fill="#545454" fill-opacity="1"><g transform="translate(294.092883, 298.732863)"><g><path d="M 1.6875 -12.859375 L 6.8125 -12.859375 C 8.4375 -12.859375 9.691406 -12.472656 10.578125 -11.703125 C 11.460938 -10.941406 11.90625 -9.863281 11.90625 -8.46875 C 11.90625 -7.007812 11.460938 -5.878906 10.578125 -5.078125 C 9.691406 -4.273438 8.4375 -3.875 6.8125 -3.875 L 3.859375 -3.875 L 3.859375 0 L 1.6875 0 Z M 3.859375 -10.921875 L 3.859375 -5.828125 L 6.71875 -5.828125 C 8.789062 -5.828125 9.828125 -6.691406 9.828125 -8.421875 C 9.828125 -10.085938 8.789062 -10.921875 6.71875 -10.921875 Z M 3.859375 -10.921875 "/></g></g></g><g fill="#545454" fill-opacity="1"><g transform="translate(313.573444, 298.732863)"><g><path d="M 6.65625 -11.484375 L 10.359375 -11.484375 L 10.359375 -12.734375 L 6.65625 -12.734375 L 6.65625 -15.3125 L 5.34375 -15.3125 L 5.34375 -12.734375 L 3.40625 -12.734375 C 3.59375 -13.359375 3.78125 -14.03125 3.953125 -14.6875 L 2.671875 -14.9375 C 2.296875 -13.171875 1.65625 -11.34375 0.828125 -10.109375 C 1.15625 -10 1.765625 -9.75 2.046875 -9.59375 C 2.359375 -10.109375 2.671875 -10.765625 2.953125 -11.484375 L 5.34375 -11.484375 L 5.34375 -9.5625 L 0.875 -9.5625 L 0.875 -8.3125 L 5.34375 -8.3125 L 5.34375 -6.46875 L 1.734375 -6.46875 L 1.734375 -0.09375 L 2.984375 -0.09375 L 2.984375 -5.21875 L 5.34375 -5.21875 L 5.34375 1.375 L 6.65625 1.375 L 6.65625 -5.21875 L 9.1875 -5.21875 L 9.1875 -1.46875 C 9.1875 -1.28125 9.125 -1.234375 8.9375 -1.234375 C 8.75 -1.21875 8.140625 -1.21875 7.34375 -1.234375 C 7.53125 -0.875 7.703125 -0.40625 7.75 -0.03125 C 8.765625 -0.03125 9.46875 -0.0625 9.890625 -0.25 C 10.34375 -0.484375 10.4375 -0.828125 10.4375 -1.453125 L 10.4375 -6.46875 L 6.65625 -6.46875 L 6.65625 -8.3125 L 11.078125 -8.3125 L 11.078125 -9.5625 L 6.65625 -9.5625 Z M 13.6875 -13.703125 L 12.40625 -13.703125 L 12.40625 -3.59375 L 13.6875 -3.59375 Z M 15.65625 -15.171875 L 15.65625 -0.453125 C 15.65625 -0.140625 15.5625 -0.078125 15.265625 -0.0625 C 14.953125 -0.0625 13.921875 -0.0625 12.84375 -0.09375 C 13.03125 0.328125 13.21875 0.953125 13.28125 1.34375 C 14.640625 1.34375 15.65625 1.296875 16.21875 1.0625 C 16.78125 0.828125 16.984375 0.421875 16.984375 -0.484375 L 16.984375 -15.171875 Z M 15.65625 -15.171875 "/></g></g></g><g fill="#545454" fill-opacity="1"><g transform="translate(339.063586, 298.732863)"><g><path d="M 5.28125 -15.3125 C 4.25 -12.515625 2.546875 -9.78125 0.734375 -8.015625 C 1 -7.71875 1.390625 -6.96875 1.53125 -6.65625 C 2.15625 -7.296875 2.78125 -8.03125 3.34375 -8.84375 L 3.34375 1.375 L 4.703125 1.375 L 4.703125 -10.953125 C 5.421875 -12.21875 6.078125 -13.5625 6.578125 -14.890625 Z M 17.609375 -11 L 17.609375 -12.3125 L 9.953125 -12.3125 C 10.328125 -13.125 10.671875 -13.953125 10.96875 -14.796875 L 9.671875 -15.140625 C 8.765625 -12.453125 7.28125 -9.8125 5.625 -8.109375 C 5.9375 -7.890625 6.46875 -7.421875 6.6875 -7.1875 C 7.609375 -8.21875 8.5 -9.53125 9.296875 -11 L 10.5625 -11 L 10.5625 1.390625 L 11.9375 1.390625 L 11.9375 -3.046875 L 17.4375 -3.046875 L 17.4375 -4.34375 L 11.9375 -4.34375 L 11.9375 -7.109375 L 17.1875 -7.109375 L 17.1875 -8.375 L 11.9375 -8.375 L 11.9375 -11 Z M 17.609375 -11 "/></g></g></g></svg>