<svg xmlns="http://www.w3.org/2000/svg" xmlns:xlink="http://www.w3.org/1999/xlink" width="500" zoomAndPan="magnify" viewBox="0 0 375 374.999991" height="500" preserveAspectRatio="xMidYMid meet" version="1.0"><defs><g/><clipPath id="5098f17d1a"><path d="M 101 142 L 265 142 L 265 247 L 101 247 Z M 101 142 " clip-rule="nonzero"/></clipPath><clipPath id="a51e11be0d"><path d="M 246.234375 265.652344 L 85.511719 221.125 L 108.917969 136.636719 L 269.644531 181.164062 Z M 246.234375 265.652344 " clip-rule="nonzero"/></clipPath><clipPath id="0ac9a7a94d"><path d="M 246.246094 174.679688 C 249.28125 175.523438 252.140625 176.996094 254.824219 179.101562 C 265.3125 187.453125 267.09375 202.65625 258.742188 213.144531 C 236.699219 241.082031 200.324219 252.929688 166.050781 243.433594 C 131.773438 233.941406 106.679688 205.0625 102.035156 169.726562 C 100.269531 156.4375 109.652344 144.195312 122.910156 142.554688 C 136.199219 140.789062 148.445312 150.171875 150.082031 163.429688 C 152.230469 179.277344 163.582031 192.363281 179.015625 196.640625 C 194.445312 200.914062 210.789062 195.5 220.785156 183.015625 C 226.90625 175.179688 237.136719 172.160156 246.246094 174.679688 Z M 246.246094 174.679688 " clip-rule="nonzero"/></clipPath><clipPath id="53af51d854"><path d="M 101 69 L 235 69 L 235 211 L 101 211 Z M 101 69 " clip-rule="nonzero"/></clipPath><clipPath id="1ed3b59701"><path d="M 68.214844 162.339844 L 178.492188 37.222656 L 244.257812 95.195312 L 133.980469 220.308594 Z M 68.214844 162.339844 " clip-rule="nonzero"/></clipPath><clipPath id="851c330367"><path d="M 150.035156 202.09375 C 147.953125 204.457031 145.378906 206.386719 142.3125 207.878906 C 130.214844 213.664062 115.765625 208.625 109.980469 196.527344 C 94.476562 164.496094 99.714844 126.597656 123.230469 99.917969 C 146.75 73.234375 183.6875 63.28125 217.5 74.542969 C 230.226562 78.761719 237.140625 92.550781 232.824219 105.191406 C 228.605469 117.917969 214.8125 124.832031 202.171875 120.511719 C 186.980469 115.519531 170.246094 120.015625 159.660156 132.027344 C 149.074219 144.039062 146.800781 161.105469 153.664062 175.550781 C 158.039062 184.480469 156.285156 195.003906 150.035156 202.09375 Z M 150.035156 202.09375 " clip-rule="nonzero"/></clipPath><clipPath id="696195f9d7"><path d="M 162.511719 133.570312 L 212.488281 133.570312 L 212.488281 183.542969 L 162.511719 183.542969 Z M 162.511719 133.570312 " clip-rule="nonzero"/></clipPath><clipPath id="f03b5839c5"><path d="M 187.5 133.570312 C 173.699219 133.570312 162.511719 144.757812 162.511719 158.558594 C 162.511719 172.355469 173.699219 183.542969 187.5 183.542969 C 201.300781 183.542969 212.488281 172.355469 212.488281 158.558594 C 212.488281 144.757812 201.300781 133.570312 187.5 133.570312 Z M 187.5 133.570312 " clip-rule="nonzero"/></clipPath><clipPath id="751787b36e"><path d="M 231.320312 111.75 L 281.296875 111.75 L 281.296875 161.722656 L 231.320312 161.722656 Z M 231.320312 111.75 " clip-rule="nonzero"/></clipPath><clipPath id="188b41251f"><path d="M 256.308594 111.75 C 242.507812 111.75 231.320312 122.9375 231.320312 136.734375 C 231.320312 150.535156 242.507812 161.722656 256.308594 161.722656 C 270.109375 161.722656 281.296875 150.535156 281.296875 136.734375 C 281.296875 122.9375 270.109375 111.75 256.308594 111.75 Z M 256.308594 111.75 " clip-rule="nonzero"/></clipPath></defs><g clip-path="url(#5098f17d1a)"><g clip-path="url(#a51e11be0d)"><g clip-path="url(#0ac9a7a94d)"><path fill="#7fc367" d="M 246.234375 265.652344 L 85.84375 221.214844 L 109.25 136.726562 L 269.644531 181.164062 Z M 246.234375 265.652344 " fill-opacity="1" fill-rule="nonzero"/></g></g></g><g clip-path="url(#53af51d854)"><g clip-path="url(#1ed3b59701)"><g clip-path="url(#851c330367)"><path fill="#7fc367" d="M 68.214844 162.339844 L 178.265625 37.480469 L 244.03125 95.449219 L 133.980469 220.308594 Z M 68.214844 162.339844 " fill-opacity="1" fill-rule="nonzero"/></g></g></g><g clip-path="url(#696195f9d7)"><g clip-path="url(#f03b5839c5)"><path fill="#7fc367" d="M 162.511719 133.570312 L 212.488281 133.570312 L 212.488281 183.542969 L 162.511719 183.542969 Z M 162.511719 133.570312 " fill-opacity="1" fill-rule="nonzero"/></g></g><g clip-path="url(#751787b36e)"><g clip-path="url(#188b41251f)"><path fill="#7fc367" d="M 231.320312 111.75 L 281.296875 111.75 L 281.296875 161.722656 L 231.320312 161.722656 Z M 231.320312 111.75 " fill-opacity="1" fill-rule="nonzero"/></g></g><g fill="#000000" fill-opacity="1"><g transform="translate(44.573865, 302.214739)"><g><path d="M 16.9375 0.484375 C 14.019531 0.484375 11.390625 -0.144531 9.046875 -1.40625 C 6.710938 -2.664062 4.878906 -4.398438 3.546875 -6.609375 C 2.222656 -8.816406 1.5625 -11.296875 1.5625 -14.046875 C 1.5625 -16.804688 2.222656 -19.289062 3.546875 -21.5 C 4.878906 -23.707031 6.710938 -25.4375 9.046875 -26.6875 C 11.390625 -27.945312 14.019531 -28.578125 16.9375 -28.578125 C 19.851562 -28.578125 22.472656 -27.945312 24.796875 -26.6875 C 27.128906 -25.4375 28.960938 -23.707031 30.296875 -21.5 C 31.640625 -19.289062 32.3125 -16.804688 32.3125 -14.046875 C 32.3125 -11.296875 31.640625 -8.816406 30.296875 -6.609375 C 28.960938 -4.398438 27.128906 -2.664062 24.796875 -1.40625 C 22.472656 -0.144531 19.851562 0.484375 16.9375 0.484375 Z M 16.9375 -5.0625 C 18.59375 -5.0625 20.085938 -5.441406 21.421875 -6.203125 C 22.765625 -6.960938 23.816406 -8.023438 24.578125 -9.390625 C 25.347656 -10.753906 25.734375 -12.304688 25.734375 -14.046875 C 25.734375 -15.785156 25.347656 -17.335938 24.578125 -18.703125 C 23.816406 -20.066406 22.765625 -21.128906 21.421875 -21.890625 C 20.085938 -22.660156 18.59375 -23.046875 16.9375 -23.046875 C 15.28125 -23.046875 13.78125 -22.660156 12.4375 -21.890625 C 11.101562 -21.128906 10.054688 -20.066406 9.296875 -18.703125 C 8.535156 -17.335938 8.15625 -15.785156 8.15625 -14.046875 C 8.15625 -12.304688 8.535156 -10.753906 9.296875 -9.390625 C 10.054688 -8.023438 11.101562 -6.960938 12.4375 -6.203125 C 13.78125 -5.441406 15.28125 -5.0625 16.9375 -5.0625 Z M 16.9375 -5.0625 "/></g></g></g><g fill="#000000" fill-opacity="1"><g transform="translate(80.49803, 302.214739)"><g><path d="M 21.234375 0 L 15.8125 -7.828125 L 9.828125 -7.828125 L 9.828125 0 L 3.328125 0 L 3.328125 -28.09375 L 15.5 -28.09375 C 17.988281 -28.09375 20.148438 -27.675781 21.984375 -26.84375 C 23.816406 -26.019531 25.226562 -24.84375 26.21875 -23.3125 C 27.207031 -21.789062 27.703125 -19.988281 27.703125 -17.90625 C 27.703125 -15.8125 27.195312 -14.007812 26.1875 -12.5 C 25.1875 -10.988281 23.765625 -9.832031 21.921875 -9.03125 L 28.21875 0 Z M 21.109375 -17.90625 C 21.109375 -19.476562 20.597656 -20.6875 19.578125 -21.53125 C 18.566406 -22.375 17.085938 -22.796875 15.140625 -22.796875 L 9.828125 -22.796875 L 9.828125 -13 L 15.140625 -13 C 17.085938 -13 18.566406 -13.425781 19.578125 -14.28125 C 20.597656 -15.144531 21.109375 -16.351562 21.109375 -17.90625 Z M 21.109375 -17.90625 "/></g></g></g><g fill="#000000" fill-opacity="1"><g transform="translate(112.047098, 302.214739)"><g><path d="M 9.828125 -22.875 L 9.828125 -15.453125 L 22.84375 -15.453125 L 22.84375 -10.234375 L 9.828125 -10.234375 L 9.828125 0 L 3.328125 0 L 3.328125 -28.09375 L 24.5625 -28.09375 L 24.5625 -22.875 Z M 9.828125 -22.875 "/></g></g></g><g fill="#000000" fill-opacity="1"><g transform="translate(139.742879, 302.214739)"><g><path d="M 16.9375 0.484375 C 14.019531 0.484375 11.390625 -0.144531 9.046875 -1.40625 C 6.710938 -2.664062 4.878906 -4.398438 3.546875 -6.609375 C 2.222656 -8.816406 1.5625 -11.296875 1.5625 -14.046875 C 1.5625 -16.804688 2.222656 -19.289062 3.546875 -21.5 C 4.878906 -23.707031 6.710938 -25.4375 9.046875 -26.6875 C 11.390625 -27.945312 14.019531 -28.578125 16.9375 -28.578125 C 19.851562 -28.578125 22.472656 -27.945312 24.796875 -26.6875 C 27.128906 -25.4375 28.960938 -23.707031 30.296875 -21.5 C 31.640625 -19.289062 32.3125 -16.804688 32.3125 -14.046875 C 32.3125 -11.296875 31.640625 -8.816406 30.296875 -6.609375 C 28.960938 -4.398438 27.128906 -2.664062 24.796875 -1.40625 C 22.472656 -0.144531 19.851562 0.484375 16.9375 0.484375 Z M 16.9375 -5.0625 C 18.59375 -5.0625 20.085938 -5.441406 21.421875 -6.203125 C 22.765625 -6.960938 23.816406 -8.023438 24.578125 -9.390625 C 25.347656 -10.753906 25.734375 -12.304688 25.734375 -14.046875 C 25.734375 -15.785156 25.347656 -17.335938 24.578125 -18.703125 C 23.816406 -20.066406 22.765625 -21.128906 21.421875 -21.890625 C 20.085938 -22.660156 18.59375 -23.046875 16.9375 -23.046875 C 15.28125 -23.046875 13.78125 -22.660156 12.4375 -21.890625 C 11.101562 -21.128906 10.054688 -20.066406 9.296875 -18.703125 C 8.535156 -17.335938 8.15625 -15.785156 8.15625 -14.046875 C 8.15625 -12.304688 8.535156 -10.753906 9.296875 -9.390625 C 10.054688 -8.023438 11.101562 -6.960938 12.4375 -6.203125 C 13.78125 -5.441406 15.28125 -5.0625 16.9375 -5.0625 Z M 16.9375 -5.0625 "/></g></g></g><g fill="#000000" fill-opacity="1"><g transform="translate(175.667039, 302.214739)"><g><path d="M 16.9375 0.484375 C 14.019531 0.484375 11.390625 -0.144531 9.046875 -1.40625 C 6.710938 -2.664062 4.878906 -4.398438 3.546875 -6.609375 C 2.222656 -8.816406 1.5625 -11.296875 1.5625 -14.046875 C 1.5625 -16.804688 2.222656 -19.289062 3.546875 -21.5 C 4.878906 -23.707031 6.710938 -25.4375 9.046875 -26.6875 C 11.390625 -27.945312 14.019531 -28.578125 16.9375 -28.578125 C 19.851562 -28.578125 22.472656 -27.945312 24.796875 -26.6875 C 27.128906 -25.4375 28.960938 -23.707031 30.296875 -21.5 C 31.640625 -19.289062 32.3125 -16.804688 32.3125 -14.046875 C 32.3125 -11.296875 31.640625 -8.816406 30.296875 -6.609375 C 28.960938 -4.398438 27.128906 -2.664062 24.796875 -1.40625 C 22.472656 -0.144531 19.851562 0.484375 16.9375 0.484375 Z M 16.9375 -5.0625 C 18.59375 -5.0625 20.085938 -5.441406 21.421875 -6.203125 C 22.765625 -6.960938 23.816406 -8.023438 24.578125 -9.390625 C 25.347656 -10.753906 25.734375 -12.304688 25.734375 -14.046875 C 25.734375 -15.785156 25.347656 -17.335938 24.578125 -18.703125 C 23.816406 -20.066406 22.765625 -21.128906 21.421875 -21.890625 C 20.085938 -22.660156 18.59375 -23.046875 16.9375 -23.046875 C 15.28125 -23.046875 13.78125 -22.660156 12.4375 -21.890625 C 11.101562 -21.128906 10.054688 -20.066406 9.296875 -18.703125 C 8.535156 -17.335938 8.15625 -15.785156 8.15625 -14.046875 C 8.15625 -12.304688 8.535156 -10.753906 9.296875 -9.390625 C 10.054688 -8.023438 11.101562 -6.960938 12.4375 -6.203125 C 13.78125 -5.441406 15.28125 -5.0625 16.9375 -5.0625 Z M 16.9375 -5.0625 "/></g></g></g><g fill="#000000" fill-opacity="1"><g transform="translate(211.591198, 302.214739)"><g><path d="M 3.328125 -28.09375 L 9.828125 -28.09375 L 9.828125 -5.296875 L 23.921875 -5.296875 L 23.921875 0 L 3.328125 0 Z M 3.328125 -28.09375 "/></g></g></g><g fill="#000000" fill-opacity="1"><g transform="translate(237.882126, 302.214739)"><g/></g></g><g fill="#000000" fill-opacity="1"><g transform="translate(251.288609, 302.214739)"><g><path d="M 3.328125 -28.09375 L 9.828125 -28.09375 L 9.828125 0 L 3.328125 0 Z M 3.328125 -28.09375 "/></g></g></g><g fill="#000000" fill-opacity="1"><g transform="translate(266.501328, 302.214739)"><g><path d="M 29.109375 -28.09375 L 29.109375 0 L 23.765625 0 L 9.75 -17.0625 L 9.75 0 L 3.328125 0 L 3.328125 -28.09375 L 8.703125 -28.09375 L 22.671875 -11.03125 L 22.671875 -28.09375 Z M 29.109375 -28.09375 "/></g></g></g><g fill="#000000" fill-opacity="1"><g transform="translate(300.980507, 302.214739)"><g><path d="M 16.78125 0.484375 C 13.914062 0.484375 11.328125 -0.132812 9.015625 -1.375 C 6.703125 -2.625 4.878906 -4.351562 3.546875 -6.5625 C 2.222656 -8.769531 1.5625 -11.265625 1.5625 -14.046875 C 1.5625 -16.828125 2.222656 -19.320312 3.546875 -21.53125 C 4.878906 -23.738281 6.703125 -25.460938 9.015625 -26.703125 C 11.328125 -27.953125 13.925781 -28.578125 16.8125 -28.578125 C 19.25 -28.578125 21.453125 -28.148438 23.421875 -27.296875 C 25.390625 -26.441406 27.039062 -25.210938 28.375 -23.609375 L 24.203125 -19.75 C 22.304688 -21.945312 19.953125 -23.046875 17.140625 -23.046875 C 15.398438 -23.046875 13.847656 -22.660156 12.484375 -21.890625 C 11.117188 -21.128906 10.054688 -20.066406 9.296875 -18.703125 C 8.535156 -17.335938 8.15625 -15.785156 8.15625 -14.046875 C 8.15625 -12.304688 8.535156 -10.753906 9.296875 -9.390625 C 10.054688 -8.023438 11.117188 -6.960938 12.484375 -6.203125 C 13.847656 -5.441406 15.398438 -5.0625 17.140625 -5.0625 C 19.953125 -5.0625 22.304688 -6.171875 24.203125 -8.390625 L 28.375 -4.53125 C 27.039062 -2.90625 25.382812 -1.660156 23.40625 -0.796875 C 21.425781 0.0546875 19.21875 0.484375 16.78125 0.484375 Z M 16.78125 0.484375 "/></g></g></g><g fill="#7fc367" fill-opacity="1"><g transform="translate(48.843584, 329.078231)"><g><path d="M 1.46875 -12.40625 L 7.109375 -12.40625 C 8.453125 -12.40625 9.640625 -12.144531 10.671875 -11.625 C 11.703125 -11.113281 12.503906 -10.390625 13.078125 -9.453125 C 13.648438 -8.523438 13.9375 -7.441406 13.9375 -6.203125 C 13.9375 -4.960938 13.648438 -3.875 13.078125 -2.9375 C 12.503906 -2.007812 11.703125 -1.285156 10.671875 -0.765625 C 9.640625 -0.253906 8.453125 0 7.109375 0 L 1.46875 0 Z M 6.96875 -2.359375 C 8.207031 -2.359375 9.191406 -2.703125 9.921875 -3.390625 C 10.660156 -4.085938 11.03125 -5.023438 11.03125 -6.203125 C 11.03125 -7.378906 10.660156 -8.3125 9.921875 -9 C 9.191406 -9.695312 8.207031 -10.046875 6.96875 -10.046875 L 4.34375 -10.046875 L 4.34375 -2.359375 Z M 6.96875 -2.359375 "/></g></g></g><g fill="#7fc367" fill-opacity="1"><g transform="translate(70.157518, 329.078231)"><g><path d="M 1.46875 -12.40625 L 4.34375 -12.40625 L 4.34375 0 L 1.46875 0 Z M 1.46875 -12.40625 "/></g></g></g><g fill="#7fc367" fill-opacity="1"><g transform="translate(82.649318, 329.078231)"><g><path d="M 9.859375 -6.390625 L 12.46875 -6.390625 L 12.46875 -1.359375 C 11.800781 -0.859375 11.023438 -0.46875 10.140625 -0.1875 C 9.253906 0.0820312 8.359375 0.21875 7.453125 0.21875 C 6.171875 0.21875 5.015625 -0.0546875 3.984375 -0.609375 C 2.953125 -1.160156 2.144531 -1.921875 1.5625 -2.890625 C 0.976562 -3.867188 0.6875 -4.972656 0.6875 -6.203125 C 0.6875 -7.429688 0.976562 -8.53125 1.5625 -9.5 C 2.144531 -10.476562 2.957031 -11.238281 4 -11.78125 C 5.039062 -12.332031 6.210938 -12.609375 7.515625 -12.609375 C 8.597656 -12.609375 9.582031 -12.425781 10.46875 -12.0625 C 11.351562 -11.695312 12.097656 -11.164062 12.703125 -10.46875 L 10.859375 -8.765625 C 9.972656 -9.703125 8.90625 -10.171875 7.65625 -10.171875 C 6.863281 -10.171875 6.160156 -10.003906 5.546875 -9.671875 C 4.929688 -9.335938 4.453125 -8.867188 4.109375 -8.265625 C 3.765625 -7.671875 3.59375 -6.984375 3.59375 -6.203125 C 3.59375 -5.429688 3.765625 -4.742188 4.109375 -4.140625 C 4.453125 -3.546875 4.925781 -3.078125 5.53125 -2.734375 C 6.144531 -2.398438 6.84375 -2.234375 7.625 -2.234375 C 8.445312 -2.234375 9.191406 -2.410156 9.859375 -2.765625 Z M 9.859375 -6.390625 "/></g></g></g><g fill="#7fc367" fill-opacity="1"><g transform="translate(102.988915, 329.078231)"><g><path d="M 1.46875 -12.40625 L 4.34375 -12.40625 L 4.34375 0 L 1.46875 0 Z M 1.46875 -12.40625 "/></g></g></g><g fill="#7fc367" fill-opacity="1"><g transform="translate(115.480715, 329.078231)"><g><path d="M 4.046875 -10.0625 L 0.078125 -10.0625 L 0.078125 -12.40625 L 10.875 -12.40625 L 10.875 -10.0625 L 6.90625 -10.0625 L 6.90625 0 L 4.046875 0 Z M 4.046875 -10.0625 "/></g></g></g><g fill="#7fc367" fill-opacity="1"><g transform="translate(133.109909, 329.078231)"><g><path d="M 9.640625 -2.65625 L 3.875 -2.65625 L 2.78125 0 L -0.15625 0 L 5.375 -12.40625 L 8.203125 -12.40625 L 13.75 0 L 10.734375 0 Z M 8.734375 -4.84375 L 6.765625 -9.578125 L 4.796875 -4.84375 Z M 8.734375 -4.84375 "/></g></g></g><g fill="#7fc367" fill-opacity="1"><g transform="translate(153.360936, 329.078231)"><g><path d="M 1.46875 -12.40625 L 4.34375 -12.40625 L 4.34375 -2.34375 L 10.5625 -2.34375 L 10.5625 0 L 1.46875 0 Z M 1.46875 -12.40625 "/></g></g></g><g fill="#7fc367" fill-opacity="1"><g transform="translate(170.742104, 329.078231)"><g/></g></g><g fill="#7fc367" fill-opacity="1"><g transform="translate(182.43673, 329.078231)"><g><path d="M 5.546875 0.21875 C 4.566406 0.21875 3.617188 0.0859375 2.703125 -0.171875 C 1.785156 -0.441406 1.050781 -0.789062 0.5 -1.21875 L 1.46875 -3.390625 C 2 -2.992188 2.628906 -2.675781 3.359375 -2.4375 C 4.097656 -2.207031 4.832031 -2.09375 5.5625 -2.09375 C 6.375 -2.09375 6.972656 -2.210938 7.359375 -2.453125 C 7.753906 -2.691406 7.953125 -3.015625 7.953125 -3.421875 C 7.953125 -3.710938 7.835938 -3.957031 7.609375 -4.15625 C 7.378906 -4.351562 7.082031 -4.507812 6.71875 -4.625 C 6.363281 -4.738281 5.878906 -4.867188 5.265625 -5.015625 C 4.316406 -5.234375 3.539062 -5.457031 2.9375 -5.6875 C 2.332031 -5.914062 1.816406 -6.273438 1.390625 -6.765625 C 0.960938 -7.265625 0.75 -7.925781 0.75 -8.75 C 0.75 -9.46875 0.941406 -10.117188 1.328125 -10.703125 C 1.710938 -11.296875 2.296875 -11.757812 3.078125 -12.09375 C 3.867188 -12.4375 4.832031 -12.609375 5.96875 -12.609375 C 6.757812 -12.609375 7.53125 -12.515625 8.28125 -12.328125 C 9.039062 -12.140625 9.707031 -11.867188 10.28125 -11.515625 L 9.390625 -9.34375 C 8.242188 -9.988281 7.097656 -10.3125 5.953125 -10.3125 C 5.148438 -10.3125 4.554688 -10.179688 4.171875 -9.921875 C 3.785156 -9.660156 3.59375 -9.316406 3.59375 -8.890625 C 3.59375 -8.460938 3.8125 -8.144531 4.25 -7.9375 C 4.695312 -7.738281 5.378906 -7.535156 6.296875 -7.328125 C 7.234375 -7.109375 8.003906 -6.882812 8.609375 -6.65625 C 9.210938 -6.4375 9.726562 -6.082031 10.15625 -5.59375 C 10.59375 -5.113281 10.8125 -4.457031 10.8125 -3.625 C 10.8125 -2.914062 10.613281 -2.269531 10.21875 -1.6875 C 9.820312 -1.101562 9.226562 -0.640625 8.4375 -0.296875 C 7.644531 0.046875 6.679688 0.21875 5.546875 0.21875 Z M 5.546875 0.21875 "/></g></g></g><g fill="#7fc367" fill-opacity="1"><g transform="translate(200.420224, 329.078231)"><g><path d="M 7.484375 0.21875 C 6.191406 0.21875 5.023438 -0.0546875 3.984375 -0.609375 C 2.953125 -1.171875 2.144531 -1.9375 1.5625 -2.90625 C 0.976562 -3.882812 0.6875 -4.984375 0.6875 -6.203125 C 0.6875 -7.421875 0.976562 -8.515625 1.5625 -9.484375 C 2.144531 -10.460938 2.953125 -11.226562 3.984375 -11.78125 C 5.023438 -12.332031 6.191406 -12.609375 7.484375 -12.609375 C 8.765625 -12.609375 9.914062 -12.332031 10.9375 -11.78125 C 11.96875 -11.226562 12.78125 -10.460938 13.375 -9.484375 C 13.96875 -8.515625 14.265625 -7.421875 14.265625 -6.203125 C 14.265625 -4.984375 13.96875 -3.882812 13.375 -2.90625 C 12.78125 -1.9375 11.96875 -1.171875 10.9375 -0.609375 C 9.914062 -0.0546875 8.765625 0.21875 7.484375 0.21875 Z M 7.484375 -2.234375 C 8.210938 -2.234375 8.867188 -2.398438 9.453125 -2.734375 C 10.046875 -3.078125 10.507812 -3.546875 10.84375 -4.140625 C 11.1875 -4.742188 11.359375 -5.429688 11.359375 -6.203125 C 11.359375 -6.972656 11.1875 -7.65625 10.84375 -8.25 C 10.507812 -8.851562 10.046875 -9.320312 9.453125 -9.65625 C 8.867188 -10 8.210938 -10.171875 7.484375 -10.171875 C 6.742188 -10.171875 6.078125 -10 5.484375 -9.65625 C 4.898438 -9.320312 4.4375 -8.851562 4.09375 -8.25 C 3.757812 -7.65625 3.59375 -6.972656 3.59375 -6.203125 C 3.59375 -5.429688 3.757812 -4.742188 4.09375 -4.140625 C 4.4375 -3.546875 4.898438 -3.078125 5.484375 -2.734375 C 6.078125 -2.398438 6.742188 -2.234375 7.484375 -2.234375 Z M 7.484375 -2.234375 "/></g></g></g><g fill="#7fc367" fill-opacity="1"><g transform="translate(222.053047, 329.078231)"><g><path d="M 1.46875 -12.40625 L 4.34375 -12.40625 L 4.34375 -2.34375 L 10.5625 -2.34375 L 10.5625 0 L 1.46875 0 Z M 1.46875 -12.40625 "/></g></g></g><g fill="#7fc367" fill-opacity="1"><g transform="translate(239.434225, 329.078231)"><g><path d="M 6.984375 0.21875 C 5.210938 0.21875 3.832031 -0.269531 2.84375 -1.25 C 1.851562 -2.238281 1.359375 -3.640625 1.359375 -5.453125 L 1.359375 -12.40625 L 4.234375 -12.40625 L 4.234375 -5.5625 C 4.234375 -3.34375 5.15625 -2.234375 7 -2.234375 C 7.894531 -2.234375 8.578125 -2.5 9.046875 -3.03125 C 9.523438 -3.570312 9.765625 -4.414062 9.765625 -5.5625 L 9.765625 -12.40625 L 12.59375 -12.40625 L 12.59375 -5.453125 C 12.59375 -3.640625 12.097656 -2.238281 11.109375 -1.25 C 10.128906 -0.269531 8.753906 0.21875 6.984375 0.21875 Z M 6.984375 0.21875 "/></g></g></g><g fill="#7fc367" fill-opacity="1"><g transform="translate(260.074984, 329.078231)"><g><path d="M 4.046875 -10.0625 L 0.078125 -10.0625 L 0.078125 -12.40625 L 10.875 -12.40625 L 10.875 -10.0625 L 6.90625 -10.0625 L 6.90625 0 L 4.046875 0 Z M 4.046875 -10.0625 "/></g></g></g><g fill="#7fc367" fill-opacity="1"><g transform="translate(277.704183, 329.078231)"><g><path d="M 1.46875 -12.40625 L 4.34375 -12.40625 L 4.34375 0 L 1.46875 0 Z M 1.46875 -12.40625 "/></g></g></g><g fill="#7fc367" fill-opacity="1"><g transform="translate(290.195989, 329.078231)"><g><path d="M 7.484375 0.21875 C 6.191406 0.21875 5.023438 -0.0546875 3.984375 -0.609375 C 2.953125 -1.171875 2.144531 -1.9375 1.5625 -2.90625 C 0.976562 -3.882812 0.6875 -4.984375 0.6875 -6.203125 C 0.6875 -7.421875 0.976562 -8.515625 1.5625 -9.484375 C 2.144531 -10.460938 2.953125 -11.226562 3.984375 -11.78125 C 5.023438 -12.332031 6.191406 -12.609375 7.484375 -12.609375 C 8.765625 -12.609375 9.914062 -12.332031 10.9375 -11.78125 C 11.96875 -11.226562 12.78125 -10.460938 13.375 -9.484375 C 13.96875 -8.515625 14.265625 -7.421875 14.265625 -6.203125 C 14.265625 -4.984375 13.96875 -3.882812 13.375 -2.90625 C 12.78125 -1.9375 11.96875 -1.171875 10.9375 -0.609375 C 9.914062 -0.0546875 8.765625 0.21875 7.484375 0.21875 Z M 7.484375 -2.234375 C 8.210938 -2.234375 8.867188 -2.398438 9.453125 -2.734375 C 10.046875 -3.078125 10.507812 -3.546875 10.84375 -4.140625 C 11.1875 -4.742188 11.359375 -5.429688 11.359375 -6.203125 C 11.359375 -6.972656 11.1875 -7.65625 10.84375 -8.25 C 10.507812 -8.851562 10.046875 -9.320312 9.453125 -9.65625 C 8.867188 -10 8.210938 -10.171875 7.484375 -10.171875 C 6.742188 -10.171875 6.078125 -10 5.484375 -9.65625 C 4.898438 -9.320312 4.4375 -8.851562 4.09375 -8.25 C 3.757812 -7.65625 3.59375 -6.972656 3.59375 -6.203125 C 3.59375 -5.429688 3.757812 -4.742188 4.09375 -4.140625 C 4.4375 -3.546875 4.898438 -3.078125 5.484375 -2.734375 C 6.078125 -2.398438 6.742188 -2.234375 7.484375 -2.234375 Z M 7.484375 -2.234375 "/></g></g></g><g fill="#7fc367" fill-opacity="1"><g transform="translate(311.828812, 329.078231)"><g><path d="M 12.84375 -12.40625 L 12.84375 0 L 10.484375 0 L 4.3125 -7.53125 L 4.3125 0 L 1.46875 0 L 1.46875 -12.40625 L 3.84375 -12.40625 L 10.015625 -4.875 L 10.015625 -12.40625 Z M 12.84375 -12.40625 "/></g></g></g></svg>